<?xml version="1.0" encoding="UTF-8" standalone="no"?>
<!-- Created with Inkscape (http://www.inkscape.org/) -->

<svg
   xmlns:dc="http://purl.org/dc/elements/1.1/"
   xmlns:cc="http://creativecommons.org/ns#"
   xmlns:rdf="http://www.w3.org/1999/02/22-rdf-syntax-ns#"
   xmlns:svg="http://www.w3.org/2000/svg"
   xmlns="http://www.w3.org/2000/svg"
   xmlns:sodipodi="http://sodipodi.sourceforge.net/DTD/sodipodi-0.dtd"
   xmlns:inkscape="http://www.inkscape.org/namespaces/inkscape"
   id="svg2"
   version="1.1"
   inkscape:version="0.48.4 r9939"
   width="178.75"
   height="140"
   xml:space="preserve"
   sodipodi:docname="overcomplete_decision.pdf"><metadata
     id="metadata8"><rdf:RDF><cc:Work
         rdf:about=""><dc:format>image/svg+xml</dc:format><dc:type
           rdf:resource="http://purl.org/dc/dcmitype/StillImage" /><dc:title></dc:title></cc:Work></rdf:RDF></metadata><defs
     id="defs6"><clipPath
       clipPathUnits="userSpaceOnUse"
       id="clipPath20"><path
         d="M 0,0 143,0 143,59 0,59 0,0 z"
         id="path22" /></clipPath><clipPath
       clipPathUnits="userSpaceOnUse"
       id="clipPath42"><path
         d="m 0,111.398 143,0 L 143,0 0,0 0,111.398 z"
         id="path44" /></clipPath><clipPath
       clipPathUnits="userSpaceOnUse"
       id="clipPath52"><path
         d="m 43,56 57,0 0,56 -57,0 0,-56 z"
         id="path54" /></clipPath><clipPath
       clipPathUnits="userSpaceOnUse"
       id="clipPath70"><path
         d="m 51,82 18,0 0,15 -18,0 0,-15 z"
         id="path72" /></clipPath><clipPath
       clipPathUnits="userSpaceOnUse"
       id="clipPath92"><path
         d="m 73,82 18,0 0,15 -18,0 0,-15 z"
         id="path94" /></clipPath><clipPath
       clipPathUnits="userSpaceOnUse"
       id="clipPath112"><path
         d="m 0,111.398 143,0 L 143,0 0,0 0,111.398 z"
         id="path114" /></clipPath><clipPath
       clipPathUnits="userSpaceOnUse"
       id="clipPath122"><path
         d="M 1,1 44,1 44,58 1,58 1,1 z"
         id="path124" /></clipPath><clipPath
       clipPathUnits="userSpaceOnUse"
       id="clipPath140"><path
         d="m 16,25 18,0 0,15 -18,0 0,-15 z"
         id="path142" /></clipPath><clipPath
       clipPathUnits="userSpaceOnUse"
       id="clipPath160"><path
         d="m 0,111.398 143,0 L 143,0 0,0 0,111.398 z"
         id="path162" /></clipPath><clipPath
       clipPathUnits="userSpaceOnUse"
       id="clipPath170"><path
         d="m 43,1 6,0 0,57 -6,0 0,-57 z"
         id="path172" /></clipPath><clipPath
       clipPathUnits="userSpaceOnUse"
       id="clipPath188"><path
         d="m 35,31 18,0 0,14 -18,0 0,-14 z"
         id="path190" /></clipPath><clipPath
       clipPathUnits="userSpaceOnUse"
       id="clipPath208"><path
         d="m 0,111.398 143,0 L 143,0 0,0 0,111.398 z"
         id="path210" /></clipPath><clipPath
       clipPathUnits="userSpaceOnUse"
       id="clipPath218"><path
         d="m 94,1 6,0 0,57 -6,0 0,-57 z"
         id="path220" /></clipPath><clipPath
       clipPathUnits="userSpaceOnUse"
       id="clipPath236"><path
         d="m 89,31 18,0 0,14 -18,0 0,-14 z"
         id="path238" /></clipPath><clipPath
       clipPathUnits="userSpaceOnUse"
       id="clipPath256"><path
         d="m 0,111.398 143,0 L 143,0 0,0 0,111.398 z"
         id="path258" /></clipPath><clipPath
       clipPathUnits="userSpaceOnUse"
       id="clipPath266"><path
         d="m 98,1 43,0 0,57 -43,0 0,-57 z"
         id="path268" /></clipPath><clipPath
       clipPathUnits="userSpaceOnUse"
       id="clipPath284"><path
         d="m 108,25 18,0 0,15 -18,0 0,-15 z"
         id="path286" /></clipPath></defs><sodipodi:namedview
     pagecolor="#ffffff"
     bordercolor="#666666"
     borderopacity="1"
     objecttolerance="10"
     gridtolerance="10"
     guidetolerance="10"
     inkscape:pageopacity="0"
     inkscape:pageshadow="2"
     inkscape:window-width="875"
     inkscape:window-height="571"
     id="namedview4"
     showgrid="false"
     inkscape:zoom="3.3714286"
     inkscape:cx="88.711239"
     inkscape:cy="54.746587"
     inkscape:window-x="0"
     inkscape:window-y="32"
     inkscape:window-maximized="0"
     inkscape:current-layer="g10" /><g
     id="g10"
     inkscape:groupmode="layer"
     inkscape:label="overcomplete_decision"
     transform="matrix(1.25,0,0,-1.25,0,140)"><g
       id="g252"><g
         id="g254"
         clip-path="url(#clipPath256)"><g
           id="g260"><g
             id="g262"><g
               id="g264"
               clip-path="url(#clipPath266)"><g
                 id="g270"><g
                   id="g272"
                   transform="translate(0,112)"><path
                     d="m 99,-55 c 13.918,-18.363 28.18,-36.469 41.602,-55.199"
                     style="fill:none;stroke:#ff0000;stroke-opacity:1;stroke-width:0.5;stroke-linecap:butt;stroke-linejoin:round;stroke-miterlimit:10;stroke-dasharray:none"
                     id="path274" /></g></g></g></g></g></g></g><g
       id="g204"><g
         id="g206"
         clip-path="url(#clipPath208)"><g
           id="g212"><g
             id="g214"><g
               id="g216"
               clip-path="url(#clipPath218)"><g
                 id="g222"><g
                   id="g224"
                   transform="translate(0,112)"><path
                     d="m 99,-55 c -1.098,-18.414 -2.027,-36.852 -4,-55.199"
                     style="fill:none;stroke:#ff0000;stroke-opacity:1;stroke-width:0.5;stroke-linecap:butt;stroke-linejoin:round;stroke-miterlimit:10;stroke-dasharray:none"
                     id="path226" /></g></g></g></g></g></g></g><g
       id="g108"><g
         id="g110"
         clip-path="url(#clipPath112)"><g
           id="g116"><g
             id="g118"><g
               id="g120"
               clip-path="url(#clipPath122)"><g
                 id="g126"><g
                   id="g128"
                   transform="translate(0,112)"><path
                     d="M 43.801,-55 C 29.949,-73.41 15.531,-91.402 2.199,-110.199"
                     style="fill:none;stroke:#ff0000;stroke-opacity:1;stroke-width:0.5;stroke-linecap:butt;stroke-linejoin:round;stroke-miterlimit:10;stroke-dasharray:none"
                     id="path130" /></g></g></g></g></g></g></g><g
       id="g156"><g
         id="g158"
         clip-path="url(#clipPath160)"><g
           id="g164"><g
             id="g166"><g
               id="g168"
               clip-path="url(#clipPath170)"><g
                 id="g174"><g
                   id="g176"
                   transform="translate(0,112)"><path
                     d="m 43.801,-55 c 1.105,-18.414 2.039,-36.852 4,-55.199"
                     style="fill:none;stroke:#ff0000;stroke-opacity:1;stroke-width:0.5;stroke-linecap:butt;stroke-linejoin:round;stroke-miterlimit:10;stroke-dasharray:none"
                     id="path178" /></g></g></g></g></g></g></g><g
       id="g38"><g
         id="g40"
         clip-path="url(#clipPath42)"><g
           id="g46"><g
             id="g48"><g
               id="g50"
               clip-path="url(#clipPath52)"><g
                 id="g56"><g
                   id="g58"
                   transform="translate(0,112)"><path
                     d="m 43.801,-55 c 8.695,18.316 18.597,36.035 27.597,54.398 C 80.402,-18.965 90.305,-36.684 99,-55"
                     style="fill:none;stroke:#ff0000;stroke-opacity:1;stroke-width:0.5;stroke-linecap:butt;stroke-linejoin:round;stroke-miterlimit:10;stroke-dasharray:none"
                     id="path60" /></g></g></g></g></g></g></g><g
       id="g12"><g
         id="g14"><g
           id="g16"><g
             id="g18"
             clip-path="url(#clipPath20)"><g
               id="g24"><path
                 d="m 45.398,57 c 0,-0.883 -0.714,-1.602 -1.597,-1.602 -0.887,0 -1.602,0.719 -1.602,1.602 0,0.883 0.715,1.602 1.602,1.602 0.883,0 1.597,-0.719 1.597,-1.602"
                 style="fill:#0000ff;fill-opacity:1;fill-rule:nonzero;stroke:none"
                 id="path26" /><path
                 d="m 100.602,57 c 0,-0.883 -0.719,-1.602 -1.602,-1.602 -0.883,0 -1.602,0.719 -1.602,1.602 0,0.883 0.719,1.602 1.602,1.602 0.883,0 1.602,-0.719 1.602,-1.602"
                 style="fill:#0000ff;fill-opacity:1;fill-rule:nonzero;stroke:none"
                 id="path28" /><path
                 d="m 3.801,1.801 c 0,-0.887 -0.715,-1.602 -1.602,-1.602 -0.883,0 -1.597,0.715 -1.597,1.602 0,0.883 0.714,1.597 1.597,1.597 0.887,0 1.602,-0.714 1.602,-1.597"
                 style="fill:#0000ff;fill-opacity:1;fill-rule:nonzero;stroke:none"
                 id="path30" /><path
                 d="m 49.398,1.801 c 0,-0.887 -0.714,-1.602 -1.597,-1.602 -0.887,0 -1.602,0.715 -1.602,1.602 0,0.883 0.715,1.597 1.602,1.597 0.883,0 1.597,-0.714 1.597,-1.597"
                 style="fill:#0000ff;fill-opacity:1;fill-rule:nonzero;stroke:none"
                 id="path32" /><path
                 d="m 96.602,1.801 c 0,-0.887 -0.719,-1.602 -1.602,-1.602 -0.883,0 -1.602,0.715 -1.602,1.602 0,0.883 0.719,1.597 1.602,1.597 0.883,0 1.602,-0.714 1.602,-1.597"
                 style="fill:#0000ff;fill-opacity:1;fill-rule:nonzero;stroke:none"
                 id="path34" /><path
                 d="m 142.199,1.801 c 0,-0.887 -0.715,-1.602 -1.597,-1.602 -0.887,0 -1.602,0.715 -1.602,1.602 0,0.883 0.715,1.597 1.602,1.597 0.882,0 1.597,-0.714 1.597,-1.597"
                 style="fill:#0000ff;fill-opacity:1;fill-rule:nonzero;stroke:none"
                 id="path36" /></g></g></g></g></g><g
       id="g62"><g
         id="g64"><g
           id="g66"><g
             id="g68"
             clip-path="url(#clipPath70)"><g
               id="g74"><path
                 d="m 51.801,96.199 16.801,0 0,-13.598 -16.801,0 0,13.598 z"
                 style="fill:#e6e6e6;fill-opacity:1;fill-rule:evenodd;stroke:none"
                 id="path76" /><text
                 transform="matrix(1,0,0,-1,53.4,85.8)"
                 id="text78"><tspan
                   style="fill:#ff0000;fill-opacity:1;fill-rule:nonzero;stroke:none;font-family:TeXGyreHeros;font-variant:normal;font-weight:normal;font-size:10;writing-mode:lr;-inkscape-font-specification:TeXGyreHeros-Regular"
                   x="0 5.56"
                   y="0"
                   sodipodi:role="line"
                   id="tspan80">1:</tspan></text>
<text
                 transform="matrix(1,0,0,-1,61.4,85.8)"
                 id="text82"><tspan
                   style="fill:#0000ff;fill-opacity:1;fill-rule:nonzero;stroke:none;font-family:TeXGyreHeros;font-variant:normal;font-weight:normal;font-size:10;writing-mode:lr;-inkscape-font-specification:TeXGyreHeros-Regular"
                   x="0"
                   y="0"
                   id="tspan84">A</tspan></text>
</g></g></g></g><g
         id="g86"><g
           id="g88"><g
             id="g90"
             clip-path="url(#clipPath92)"><g
               id="g96"><path
                 d="m 73.398,96.199 16.801,0 0,-13.598 -16.801,0 0,13.598 z"
                 style="fill:#e6e6e6;fill-opacity:1;fill-rule:evenodd;stroke:none"
                 id="path98" /><text
                 transform="matrix(1,0,0,-1,75,85.8)"
                 id="text100"><tspan
                   style="fill:#ff0000;fill-opacity:1;fill-rule:nonzero;stroke:none;font-family:TeXGyreHeros;font-variant:normal;font-weight:normal;font-size:10;writing-mode:lr;-inkscape-font-specification:TeXGyreHeros-Regular"
                   x="0 5.56"
                   y="0"
                   sodipodi:role="line"
                   id="tspan102">2:</tspan></text>
<text
                 transform="matrix(1,0,0,-1,83,85.8)"
                 id="text104"><tspan
                   style="fill:#0000ff;fill-opacity:1;fill-rule:nonzero;stroke:none;font-family:TeXGyreHeros;font-variant:normal;font-weight:normal;font-size:10;writing-mode:lr;-inkscape-font-specification:TeXGyreHeros-Regular"
                   x="0"
                   y="0"
                   id="tspan106">B</tspan></text>
</g></g></g></g></g><path
       inkscape:connector-curvature="0"
       id="path146"
       style="fill:#e6e6e6;fill-opacity:1;fill-rule:evenodd;stroke:none"
       d="m 16.602,39.398 16.797,0 0,-13.598 -16.797,0 0,13.598 z" /><text
       y="-29"
       x="18.200001"
       id="text148"
       transform="scale(1,-1)"><tspan
         id="tspan150"
         sodipodi:role="line"
         y="-29"
         x="18.200001 23.76"
         style="font-size:10px;font-variant:normal;font-weight:normal;writing-mode:lr-tb;fill:#ff0000;fill-opacity:1;fill-rule:nonzero;stroke:none;font-family:TeXGyreHeros;-inkscape-font-specification:TeXGyreHeros-Regular">1:</tspan></text>
<g
       id="g180"><g
         id="g182"><g
           id="g184"><g
             id="g186"
             clip-path="url(#clipPath188)"><g
               id="g192"><path
                 d="m 35.801,45 16.801,0 0,-13.602 -16.801,0 0,13.602 z"
                 style="fill:#e6e6e6;fill-opacity:1;fill-rule:evenodd;stroke:none"
                 id="path194" /><text
                 transform="matrix(1,0,0,-1,37.4,34.6)"
                 id="text196"><tspan
                   style="fill:#ff0000;fill-opacity:1;fill-rule:nonzero;stroke:none;font-family:TeXGyreHeros;font-variant:normal;font-weight:normal;font-size:10;writing-mode:lr;-inkscape-font-specification:TeXGyreHeros-Regular"
                   x="0 5.56"
                   y="0"
                   sodipodi:role="line"
                   id="tspan198">2:</tspan></text>
<text
                 transform="matrix(1,0,0,-1,45.4,34.6)"
                 id="text200"><tspan
                   style="fill:#0000ff;fill-opacity:1;fill-rule:nonzero;stroke:none;font-family:TeXGyreHeros;font-variant:normal;font-weight:normal;font-size:10;writing-mode:lr;-inkscape-font-specification:TeXGyreHeros-Regular"
                   x="0"
                   y="0"
                   id="tspan202">A</tspan></text>
</g></g></g></g></g><path
       inkscape:connector-curvature="0"
       id="path242"
       style="fill:#e6e6e6;fill-opacity:1;fill-rule:evenodd;stroke:none"
       d="m 89.398,45 16.801,0 0,-13.602 -16.801,0 0,13.602 z" /><text
       id="text244"
       transform="scale(1,-1)"
       x="91"
       y="-34.599998"><tspan
         id="tspan246"
         sodipodi:role="line"
         y="-34.599998"
         x="91 96.559998"
         style="font-size:10px;font-variant:normal;font-weight:normal;writing-mode:lr-tb;fill:#ff0000;fill-opacity:1;fill-rule:nonzero;stroke:none;font-family:TeXGyreHeros;-inkscape-font-specification:TeXGyreHeros-Regular">1:</tspan></text>
<text
       id="text248"
       transform="scale(1,-1)"
       x="99"
       y="-34.599998"><tspan
         id="tspan250"
         y="-34.599998"
         x="99"
         style="font-size:10px;font-variant:normal;font-weight:normal;writing-mode:lr-tb;fill:#0000ff;fill-opacity:1;fill-rule:nonzero;stroke:none;font-family:TeXGyreHeros;-inkscape-font-specification:TeXGyreHeros-Regular">B</tspan></text>
<path
       inkscape:connector-curvature="0"
       id="path290"
       style="fill:#e6e6e6;fill-opacity:1;fill-rule:evenodd;stroke:none"
       d="m 108.602,39.398 16.797,0 0,-13.598 -16.797,0 0,13.598 z" /><text
       id="text292"
       transform="scale(1,-1)"
       x="110.2"
       y="-29"><tspan
         id="tspan294"
         sodipodi:role="line"
         y="-29"
         x="110.2 115.76"
         style="font-size:10px;font-variant:normal;font-weight:normal;writing-mode:lr-tb;fill:#ff0000;fill-opacity:1;fill-rule:nonzero;stroke:none;font-family:TeXGyreHeros;-inkscape-font-specification:TeXGyreHeros-Regular">2:</tspan></text>
<text
       y="-34.599998"
       x="99"
       transform="scale(1,-1)"
       id="text3336"><tspan
         style="font-size:10px;font-variant:normal;font-weight:normal;writing-mode:lr-tb;fill:#0000ff;fill-opacity:1;fill-rule:nonzero;stroke:none;font-family:TeXGyreHeros;-inkscape-font-specification:TeXGyreHeros-Regular"
         x="99"
         y="-34.599998"
         id="tspan3338">B</tspan></text>
<text
       transform="scale(1,-1)"
       id="text3380"
       x="118.14813"
       y="-29"><tspan
         style="font-size:10px;font-variant:normal;font-weight:normal;writing-mode:lr-tb;fill:#0000ff;fill-opacity:1;fill-rule:nonzero;stroke:none;font-family:TeXGyreHeros;-inkscape-font-specification:TeXGyreHeros-Regular"
         x="118.14813"
         y="-29"
         id="tspan3382">A</tspan></text>
<text
       y="-29"
       x="26.200001"
       transform="scale(1,-1)"
       id="text3384"><tspan
         style="font-size:10px;font-variant:normal;font-weight:normal;writing-mode:lr-tb;fill:#0000ff;fill-opacity:1;fill-rule:nonzero;stroke:none;font-family:TeXGyreHeros;-inkscape-font-specification:TeXGyreHeros-Regular"
         x="26.200001"
         y="-29"
         id="tspan3386">B</tspan></text>
</g></svg>