<?xml version="1.0" encoding="UTF-8" standalone="no"?>
<!-- Created with Inkscape (http://www.inkscape.org/) -->

<svg
   xmlns:dc="http://purl.org/dc/elements/1.1/"
   xmlns:cc="http://creativecommons.org/ns#"
   xmlns:rdf="http://www.w3.org/1999/02/22-rdf-syntax-ns#"
   xmlns:svg="http://www.w3.org/2000/svg"
   xmlns="http://www.w3.org/2000/svg"
   xmlns:sodipodi="http://sodipodi.sourceforge.net/DTD/sodipodi-0.dtd"
   xmlns:inkscape="http://www.inkscape.org/namespaces/inkscape"
   id="svg2"
   version="1.1"
   inkscape:version="0.48.4 r9939"
   width="99.433067"
   height="113.625"
   xml:space="preserve"
   sodipodi:docname="complete-2.pdf"><metadata
     id="metadata8"><rdf:RDF><cc:Work
         rdf:about=""><dc:format>image/svg+xml</dc:format><dc:type
           rdf:resource="http://purl.org/dc/dcmitype/StillImage" /><dc:title></dc:title></cc:Work></rdf:RDF></metadata><defs
     id="defs6"><clipPath
       clipPathUnits="userSpaceOnUse"
       id="clipPath18"><path
         d="M 0,0 612,0 612,792 0,792 0,0 z"
         id="path20"
         inkscape:connector-curvature="0" /></clipPath><clipPath
       clipPathUnits="userSpaceOnUse"
       id="clipPath28"><path
         d="m 808,5640 0,-3368 4480,0 0,3368 -4480,0 z"
         id="path30"
         inkscape:connector-curvature="0" /></clipPath><clipPath
       clipPathUnits="userSpaceOnUse"
       id="clipPath40"><path
         d="m 1392,5384 0,-2752 3480,0 0,2752 -3480,0 z"
         id="path42"
         inkscape:connector-curvature="0" /></clipPath><clipPath
       clipPathUnits="userSpaceOnUse"
       id="clipPath50"><path
         d="m 808,5640 0,-3368 4480,0 0,3368 -4480,0 z"
         id="path52"
         inkscape:connector-curvature="0" /></clipPath><clipPath
       clipPathUnits="userSpaceOnUse"
       id="clipPath84"><path
         d="m 1392,5384 0,-2752 3480,0 0,2752 -3480,0 z"
         id="path86"
         inkscape:connector-curvature="0" /></clipPath><clipPath
       clipPathUnits="userSpaceOnUse"
       id="clipPath96"><path
         d="m 808,5640 0,-3368 4480,0 0,3368 -4480,0 z"
         id="path98"
         inkscape:connector-curvature="0" /></clipPath></defs><sodipodi:namedview
     pagecolor="#ffffff"
     bordercolor="#666666"
     borderopacity="1"
     objecttolerance="10"
     gridtolerance="10"
     guidetolerance="10"
     inkscape:pageopacity="0"
     inkscape:pageshadow="2"
     inkscape:window-width="1302"
     inkscape:window-height="977"
     id="namedview4"
     showgrid="false"
     inkscape:zoom="2.0521739"
     inkscape:cx="57.890263"
     inkscape:cy="56.56262"
     inkscape:window-x="0"
     inkscape:window-y="32"
     inkscape:window-maximized="0"
     inkscape:current-layer="g10"
     fit-margin-left="0.5"
     units="cm"
     fit-margin-right="0.5"
     fit-margin-top="0"
     fit-margin-bottom="0" /><g
     id="g10"
     inkscape:groupmode="layer"
     inkscape:label="complete-2"
     transform="matrix(1.25,0,0,-1.25,17.466535,114.5625)"><g
       id="g24"
       transform="matrix(0.1,0,0,0.1,-295,-455)"><g
         id="g26"
         clip-path="url(#clipPath28)"><path
           d="m 3056,5384 c 0,-8.84 -7.16,-16 -16,-16 -8.84,0 -16,7.16 -16,16 0,8.84 7.16,16 16,16 8.84,0 16,-7.16 16,-16"
           style="fill:#0000ff;fill-opacity:1;fill-rule:nonzero;stroke:none"
           id="path32"
           inkscape:connector-curvature="0" /><path
           d="m 3056,4704 c 0,-8.84 -7.16,-16 -16,-16 -8.84,0 -16,7.16 -16,16 0,8.84 7.16,16 16,16 8.84,0 16,-7.16 16,-16"
           style="fill:#0000ff;fill-opacity:1;fill-rule:nonzero;stroke:none"
           id="path34"
           inkscape:connector-curvature="0" /></g></g><g
       id="g36"
       transform="matrix(0.1,0,0,0.1,-295,-455)"><g
         id="g38"
         clip-path="url(#clipPath40)"><path
           d="m 3040,5384 0,-680"
           style="fill:none;stroke:#ff0000;stroke-width:5;stroke-linecap:butt;stroke-linejoin:round;stroke-miterlimit:10;stroke-opacity:1;stroke-dasharray:none"
           id="path44"
           inkscape:connector-curvature="0" /></g></g><g
       id="g46"
       transform="matrix(0.1,0,0,0.1,-295,-455)"><g
         id="g48"
         clip-path="url(#clipPath50)"><path
           d="m 2952,5040 168,0 0,240 -168,0 0,-240 z"
           style="fill:#e6e6e6;fill-opacity:1;fill-rule:evenodd;stroke:none"
           id="path54"
           inkscape:connector-curvature="0" /><g
           id="g56"
           transform="scale(10,10)"><text
             transform="matrix(1,0,0,-1,296.8,517.6)"
             id="text58"><tspan
               style="font-size:10px;font-variant:normal;font-weight:normal;writing-mode:lr-tb;fill:#ff0000;fill-opacity:1;fill-rule:nonzero;stroke:none;font-family:Helvetica;-inkscape-font-specification:Helvetica"
               x="0 5.5599999"
               y="0"
               sodipodi:role="line"
               id="tspan60">1:</tspan></text>
</g><g
           id="g62"
           transform="scale(10,10)"><text
             transform="matrix(1,0,0,-1,304.8,517.6)"
             id="text64"><tspan
               style="font-size:10px;font-variant:normal;font-weight:normal;writing-mode:lr-tb;fill:#0000ff;fill-opacity:1;fill-rule:nonzero;stroke:none;font-family:Helvetica;-inkscape-font-specification:Helvetica"
               x="0"
               y="0"
               id="tspan66">A</tspan></text>
</g><g
           id="g68"
           transform="scale(10,10)"><text
             transform="matrix(1,0,0,-1,296.8,507.2)"
             id="text70"><tspan
               style="font-size:10px;font-variant:normal;font-weight:normal;writing-mode:lr-tb;fill:#ff0000;fill-opacity:1;fill-rule:nonzero;stroke:none;font-family:Helvetica;-inkscape-font-specification:Helvetica"
               x="0 5.5599999"
               y="0"
               sodipodi:role="line"
               id="tspan72">2:</tspan></text>
</g><g
           id="g74"
           transform="scale(10,10)"><text
             transform="matrix(1,0,0,-1,304.8,507.2)"
             id="text76"><tspan
               style="font-size:10px;font-variant:normal;font-weight:normal;writing-mode:lr-tb;fill:#0000ff;fill-opacity:1;fill-rule:nonzero;stroke:none;font-family:Helvetica;-inkscape-font-specification:Helvetica"
               x="0"
               y="0"
               id="tspan78">B</tspan></text>
</g></g></g><g
       id="g80"
       transform="matrix(0.1,0,0,0.18428768,-295,-875.3005)"><g
         id="g82"
         clip-path="url(#clipPath84)"><path
           d="m 3040,4952 -24,32 48,0"
           style="fill:#ff0000;fill-opacity:1;fill-rule:evenodd;stroke:none"
           id="path88"
           inkscape:connector-curvature="0" /><path
           d="m 3040,4952 -24,32 48,0 -24,-32"
           style="fill:none;stroke:#000000;stroke-width:3.6831708;stroke-linecap:butt;stroke-linejoin:round;stroke-miterlimit:10;stroke-opacity:1;stroke-dasharray:none"
           id="path90"
           inkscape:connector-curvature="0" /></g></g><path
       d="m 17,83.4 c 0,-4.418 -3.582,-8 -8,-8 -4.418,0 -8,3.582 -8,8 0,4.418 3.582,8 8,8 4.418,0 8,-3.582 8,-8"
       style="fill:#ffffff;fill-opacity:1;fill-rule:nonzero;stroke:none"
       id="path100"
       inkscape:connector-curvature="0" /><path
       d="m 17,83.4 c 0,-4.418 -3.582,-8 -8,-8 -4.418,0 -8,3.582 -8,8 0,4.418 3.582,8 8,8 4.418,0 8,-3.582 8,-8"
       style="fill:none;stroke:#000000;stroke-width:0.5;stroke-linecap:butt;stroke-linejoin:round;stroke-miterlimit:10;stroke-opacity:1;stroke-dasharray:none"
       id="path102"
       inkscape:connector-curvature="0" /><g
       id="g104"
       transform="translate(-295,-455)"><text
         transform="matrix(1,0,0,-1,302.4,534.4)"
         id="text106"><tspan
           style="font-size:10px;font-variant:normal;font-weight:normal;writing-mode:lr-tb;fill:#000000;fill-opacity:1;fill-rule:nonzero;stroke:none;font-family:Helvetica;-inkscape-font-specification:Helvetica"
           x="0"
           y="0"
           id="tspan108">1</tspan></text>
</g><path
       d="M 37.8,15.4 C 37.8,7.447 31.353,1 23.4,1 15.447,1 9,7.447 9,15.4 c 0,7.953 6.447,14.4 14.4,14.4 7.953,0 14.4,-6.447 14.4,-14.4"
       style="fill:none;stroke:#ff0000;stroke-width:0.5;stroke-linecap:butt;stroke-linejoin:round;stroke-miterlimit:10;stroke-opacity:1;stroke-dasharray:none"
       id="path110"
       inkscape:connector-curvature="0" /><g
       id="g3044"
       transform="translate(-8,0)"><path
         inkscape:connector-curvature="0"
         id="path112"
         style="fill:#e6e6e6;fill-opacity:1;fill-rule:evenodd;stroke:none"
         d="m 42.6,3.4 16.8,0 0,24 -16.8,0 0,-24 z" /><g
         transform="translate(-295,-455)"
         id="g114"><text
           id="text116"
           transform="matrix(1,0,0,-1,339.2,472)"><tspan
             id="tspan118"
             sodipodi:role="line"
             y="0"
             x="0 5.5599999"
             style="font-size:10px;font-variant:normal;font-weight:normal;writing-mode:lr-tb;fill:#ff0000;fill-opacity:1;fill-rule:nonzero;stroke:none;font-family:Helvetica;-inkscape-font-specification:Helvetica">1:</tspan></text>
</g><g
         transform="translate(-295,-455)"
         id="g120"><text
           id="text122"
           transform="matrix(1,0,0,-1,347.2,472)"><tspan
             id="tspan124"
             y="0"
             x="0"
             style="font-size:10px;font-variant:normal;font-weight:normal;writing-mode:lr-tb;fill:#0000ff;fill-opacity:1;fill-rule:nonzero;stroke:none;font-family:Helvetica;-inkscape-font-specification:Helvetica">B</tspan></text>
</g><g
         transform="translate(-295,-455)"
         id="g126"><text
           id="text128"
           transform="matrix(1,0,0,-1,339.2,461.6)"><tspan
             id="tspan130"
             sodipodi:role="line"
             y="0"
             x="0 5.5599999"
             style="font-size:10px;font-variant:normal;font-weight:normal;writing-mode:lr-tb;fill:#ff0000;fill-opacity:1;fill-rule:nonzero;stroke:none;font-family:Helvetica;-inkscape-font-specification:Helvetica">2:</tspan></text>
</g><g
         transform="translate(-295,-455)"
         id="g132"><text
           id="text134"
           transform="matrix(1,0,0,-1,347.2,461.6)"><tspan
             id="tspan136"
             y="0"
             x="0"
             style="font-size:10px;font-variant:normal;font-weight:normal;writing-mode:lr-tb;fill:#0000ff;fill-opacity:1;fill-rule:nonzero;stroke:none;font-family:Helvetica;-inkscape-font-specification:Helvetica">A</tspan></text>
</g></g><path
       d="m 17,15.4 c 0,-4.418 -3.582,-8 -8,-8 -4.418,0 -8,3.582 -8,8 0,4.418 3.582,8 8,8 4.418,0 8,-3.582 8,-8"
       style="fill:#ffffff;fill-opacity:1;fill-rule:nonzero;stroke:none"
       id="path138"
       inkscape:connector-curvature="0" /><path
       d="m 17,15.4 c 0,-4.418 -3.582,-8 -8,-8 -4.418,0 -8,3.582 -8,8 0,4.418 3.582,8 8,8 4.418,0 8,-3.582 8,-8"
       style="fill:none;stroke:#000000;stroke-width:0.5;stroke-linecap:butt;stroke-linejoin:round;stroke-miterlimit:10;stroke-opacity:1;stroke-dasharray:none"
       id="path140"
       inkscape:connector-curvature="0" /><g
       id="g142"
       transform="translate(-295,-455)"><text
         transform="matrix(1,0,0,-1,302.4,466.4)"
         id="text144"><tspan
           style="font-size:10px;font-variant:normal;font-weight:normal;writing-mode:lr-tb;fill:#000000;fill-opacity:1;fill-rule:nonzero;stroke:none;font-family:Helvetica;-inkscape-font-specification:Helvetica"
           x="0"
           y="0"
           id="tspan146">2</tspan></text>
</g></g></svg>