<?xml version="1.0" encoding="UTF-8" standalone="no"?>
<!-- Created with Inkscape (http://www.inkscape.org/) -->

<svg
   xmlns:dc="http://purl.org/dc/elements/1.1/"
   xmlns:cc="http://creativecommons.org/ns#"
   xmlns:rdf="http://www.w3.org/1999/02/22-rdf-syntax-ns#"
   xmlns:svg="http://www.w3.org/2000/svg"
   xmlns="http://www.w3.org/2000/svg"
   xmlns:sodipodi="http://sodipodi.sourceforge.net/DTD/sodipodi-0.dtd"
   xmlns:inkscape="http://www.inkscape.org/namespaces/inkscape"
   id="svg2"
   version="1.1"
   inkscape:version="0.48.4 r9939"
   width="180.74557"
   height="113.625"
   xml:space="preserve"
   sodipodi:docname="overcomplete-2.pdf"><metadata
     id="metadata8"><rdf:RDF><cc:Work
         rdf:about=""><dc:format>image/svg+xml</dc:format><dc:type
           rdf:resource="http://purl.org/dc/dcmitype/StillImage" /><dc:title></dc:title></cc:Work></rdf:RDF></metadata><defs
     id="defs6"><clipPath
       clipPathUnits="userSpaceOnUse"
       id="clipPath28"><path
         d="m 808,5640 0,-3368 4480,0 0,3368 -4480,0 z"
         id="path30"
         inkscape:connector-curvature="0" /></clipPath><clipPath
       clipPathUnits="userSpaceOnUse"
       id="clipPath42"><path
         d="m 1392,5384 0,-2752 3480,0 0,2752 -3480,0 z"
         id="path44"
         inkscape:connector-curvature="0" /></clipPath><clipPath
       clipPathUnits="userSpaceOnUse"
       id="clipPath52"><path
         d="m 808,5640 0,-3368 4480,0 0,3368 -4480,0 z"
         id="path54"
         inkscape:connector-curvature="0" /></clipPath><clipPath
       clipPathUnits="userSpaceOnUse"
       id="clipPath88"><path
         d="m 808,5640 0,-3368 4480,0 0,3368 -4480,0 z"
         id="path90"
         inkscape:connector-curvature="0" /></clipPath><clipPath
       clipPathUnits="userSpaceOnUse"
       id="clipPath110"><path
         d="m 1392,5384 0,-2752 3480,0 0,2752 -3480,0 z"
         id="path112"
         inkscape:connector-curvature="0" /></clipPath></defs><sodipodi:namedview
     pagecolor="#ffffff"
     bordercolor="#666666"
     borderopacity="1"
     objecttolerance="10"
     gridtolerance="10"
     guidetolerance="10"
     inkscape:pageopacity="0"
     inkscape:pageshadow="2"
     inkscape:window-width="1511"
     inkscape:window-height="853"
     id="namedview4"
     showgrid="false"
     fit-margin-top="0"
     fit-margin-left="0.5"
     fit-margin-right="0.5"
     fit-margin-bottom="0"
     inkscape:zoom="4.1043478"
     inkscape:cx="65.137127"
     inkscape:cy="42.901284"
     inkscape:window-x="94"
     inkscape:window-y="108"
     inkscape:window-maximized="0"
     inkscape:current-layer="g10"
     units="cm" /><g
     id="g10"
     inkscape:groupmode="layer"
     inkscape:label="overcomplete-2"
     transform="matrix(1.25,0,0,-1.25,13.529035,114.5625)"><g
       id="g24"
       transform="matrix(0.1,0,0,0.1,-266,-455)"><g
         id="g26"
         clip-path="url(#clipPath28)"><path
           d="m 3144,5384 c 0,-8.84 -7.16,-16 -16,-16 -8.84,0 -16,7.16 -16,16 0,8.84 7.16,16 16,16 8.84,0 16,-7.16 16,-16"
           style="fill:#0000ff;fill-opacity:1;fill-rule:nonzero;stroke:none"
           id="path32"
           inkscape:connector-curvature="0" /><path
           d="m 2792,4704 c 0,-8.84 -7.16,-16 -16,-16 -8.84,0 -16,7.16 -16,16 0,8.84 7.16,16 16,16 8.84,0 16,-7.16 16,-16"
           style="fill:#0000ff;fill-opacity:1;fill-rule:nonzero;stroke:none"
           id="path34"
           inkscape:connector-curvature="0" /><path
           d="m 3488,4704 c 0,-8.84 -7.16,-16 -16,-16 -8.84,0 -16,7.16 -16,16 0,8.84 7.16,16 16,16 8.84,0 16,-7.16 16,-16"
           style="fill:#0000ff;fill-opacity:1;fill-rule:nonzero;stroke:none"
           id="path36"
           inkscape:connector-curvature="0" /></g></g><g
       clip-path="url(#clipPath42)"
       id="g40"
       transform="matrix(0.1,0,0,0.1,-266,-455)"><path
         style="fill:none;stroke:#ff0000;stroke-width:5;stroke-linecap:butt;stroke-linejoin:round;stroke-miterlimit:10;stroke-opacity:1;stroke-dasharray:none"
         d="M 3128,5384 C 3001.5445,5162.1293 2897.7474,4928.3674 2776,4704"
         id="path46"
         inkscape:connector-curvature="0" /></g><g
       id="g48"
       transform="matrix(0.1,0,0,0.1,-266,-455)"><g
         id="g50"
         clip-path="url(#clipPath52)"><path
           d="m 2888,5016 168,0 0,136 -168,0 0,-136 z"
           style="fill:#e6e6e6;fill-opacity:1;fill-rule:evenodd;stroke:none"
           id="path56"
           inkscape:connector-curvature="0" /><g
           id="g58"
           transform="scale(10,10)"><text
             transform="matrix(1,0,0,-1,290.4,504.8)"
             id="text60"><tspan
               style="font-size:10px;font-variant:normal;font-weight:normal;writing-mode:lr-tb;fill:#ff0000;fill-opacity:1;fill-rule:nonzero;stroke:none;font-family:Helvetica;-inkscape-font-specification:Helvetica"
               x="0 5.5599999"
               y="0"
               sodipodi:role="line"
               id="tspan62">1:</tspan></text>
</g><g
           id="g64"
           transform="scale(10,10)"><text
             transform="matrix(1,0,0,-1,298.4,504.8)"
             id="text66"><tspan
               style="font-size:10px;font-variant:normal;font-weight:normal;writing-mode:lr-tb;fill:#0000ff;fill-opacity:1;fill-rule:nonzero;stroke:none;font-family:Helvetica;-inkscape-font-specification:Helvetica"
               x="0"
               y="0"
               id="tspan68">A</tspan></text>
</g></g></g><path
       style="fill:none;stroke:#ff0000;stroke-width:0.5;stroke-linecap:butt;stroke-linejoin:round;stroke-miterlimit:10;stroke-opacity:1;stroke-dasharray:none"
       d="M 46.8,83.4 C 58.02379,60.611519 69.509791,37.952609 81.2,15.4"
       id="path82"
       inkscape:connector-curvature="0" /><g
       id="g84"
       transform="matrix(0.1,0,0,0.1,-266,-455)"><g
         id="g86"
         clip-path="url(#clipPath88)"><path
           d="m 3184,5016 168,0 0,136 -168,0 0,-136 z"
           style="fill:#e6e6e6;fill-opacity:1;fill-rule:evenodd;stroke:none"
           id="path92"
           inkscape:connector-curvature="0" /><g
           id="g94"
           transform="scale(10,10)"><text
             transform="matrix(1,0,0,-1,320,504.8)"
             id="text96"><tspan
               style="font-size:10px;font-variant:normal;font-weight:normal;writing-mode:lr-tb;fill:#ff0000;fill-opacity:1;fill-rule:nonzero;stroke:none;font-family:Helvetica;-inkscape-font-specification:Helvetica"
               x="0 5.5599999"
               y="0"
               sodipodi:role="line"
               id="tspan98">2:</tspan></text>
</g><g
           id="g100"
           transform="scale(10,10)"><text
             transform="matrix(1,0,0,-1,328,504.8)"
             id="text102"><tspan
               style="font-size:10px;font-variant:normal;font-weight:normal;writing-mode:lr-tb;fill:#0000ff;fill-opacity:1;fill-rule:nonzero;stroke:none;font-family:Helvetica;-inkscape-font-specification:Helvetica"
               x="0"
               y="0"
               id="tspan104">B</tspan></text>
</g></g></g><g
       id="g3548"
       transform="matrix(0.99995526,0.00945951,-0.00945951,0.99995526,2.7317596,-2.5711357)"><g
         transform="matrix(0.37860317,-0.14752191,0.07261209,0.18635312,-1557.2291,-391.8692)"
         id="g106"><g
           clip-path="url(#clipPath110)"
           id="g108"><path
             inkscape:connector-curvature="0"
             id="path114"
             style="fill:#ff0000;fill-opacity:1;fill-rule:evenodd;stroke:none"
             d="m 3344,4952 -16,16 8,16" /><path
             inkscape:connector-curvature="0"
             id="path116"
             style="fill:none;stroke:#000000;stroke-width:1.75394583;stroke-linecap:butt;stroke-linejoin:round;stroke-miterlimit:10;stroke-opacity:1;stroke-dasharray:none"
             d="m 3344,4952 -16,16 8,16 8,-32" /></g></g></g><path
       d="m 54.8,83.4 c 0,-4.418 -3.582,-8 -8,-8 -4.418,0 -8,3.582 -8,8 0,4.418 3.582,8 8,8 4.418,0 8,-3.582 8,-8"
       style="fill:#ffffff;fill-opacity:1;fill-rule:nonzero;stroke:none"
       id="path126"
       inkscape:connector-curvature="0" /><path
       d="m 54.8,83.4 c 0,-4.418 -3.582,-8 -8,-8 -4.418,0 -8,3.582 -8,8 0,4.418 3.582,8 8,8 4.418,0 8,-3.582 8,-8"
       style="fill:none;stroke:#000000;stroke-width:0.5;stroke-linecap:butt;stroke-linejoin:round;stroke-miterlimit:10;stroke-opacity:1;stroke-dasharray:none"
       id="path128"
       inkscape:connector-curvature="0" /><text
       id="text132"
       transform="scale(1,-1)"
       x="46"
       y="-79.400002"><tspan
         id="tspan134"
         y="-79.400002"
         x="46"
         style="font-size:10px;font-variant:normal;font-weight:normal;writing-mode:lr-tb;fill:#000000;fill-opacity:1;fill-rule:nonzero;stroke:none;font-family:Helvetica;-inkscape-font-specification:Helvetica">1</tspan></text>
<path
       d="M 43.6,15.4 C 43.6,7.447 37.153,1 29.2,1 21.247,1 14.8,7.447 14.8,15.4 c 0,7.953 6.447,14.4 14.4,14.4 7.953,0 14.4,-6.447 14.4,-14.4"
       style="fill:none;stroke:#ff0000;stroke-width:0.5;stroke-linecap:butt;stroke-linejoin:round;stroke-miterlimit:10;stroke-opacity:1;stroke-dasharray:none"
       id="path136"
       inkscape:connector-curvature="0" /><g
       id="g3683"
       transform="translate(22.4,0)"><path
         inkscape:connector-curvature="0"
         id="path138"
         style="fill:#e6e6e6;fill-opacity:1;fill-rule:evenodd;stroke:none"
         d="m 17.2,3.4 16.8,0 0,24 -16.8,0 0,-24 z" /><text
         y="-17"
         x="18.799999"
         transform="scale(1,-1)"
         id="text142"><tspan
           style="font-size:10px;font-variant:normal;font-weight:normal;writing-mode:lr-tb;fill:#ff0000;fill-opacity:1;fill-rule:nonzero;stroke:none;font-family:Helvetica;-inkscape-font-specification:Helvetica"
           x="18.799999 24.360001"
           y="-17"
           sodipodi:role="line"
           id="tspan144">1:</tspan></text>
<text
         y="-17"
         x="26.799999"
         transform="scale(1,-1)"
         id="text148"><tspan
           style="font-size:10px;font-variant:normal;font-weight:normal;writing-mode:lr-tb;fill:#0000ff;fill-opacity:1;fill-rule:nonzero;stroke:none;font-family:Helvetica;-inkscape-font-specification:Helvetica"
           x="26.799999"
           y="-17"
           id="tspan150">A</tspan></text>
<text
         y="-6.5999999"
         x="18.799999"
         transform="scale(1,-1)"
         id="text154"><tspan
           style="font-size:10px;font-variant:normal;font-weight:normal;writing-mode:lr-tb;fill:#ff0000;fill-opacity:1;fill-rule:nonzero;stroke:none;font-family:Helvetica;-inkscape-font-specification:Helvetica"
           x="18.799999 24.360001"
           y="-6.5999999"
           sodipodi:role="line"
           id="tspan156">2:</tspan></text>
<text
         y="-6.5999999"
         x="26.799999"
         transform="scale(1,-1)"
         id="text160"><tspan
           style="font-size:10px;font-variant:normal;font-weight:normal;writing-mode:lr-tb;fill:#0000ff;fill-opacity:1;fill-rule:nonzero;stroke:none;font-family:Helvetica;-inkscape-font-specification:Helvetica"
           x="26.799999"
           y="-6.5999999"
           id="tspan162">A</tspan></text>
</g><path
       d="m 19.6,15.4 c 0,-4.418 -3.582,-8 -8,-8 -4.418,0 -8,3.582 -8,8 0,4.418 3.582,8 8,8 4.418,0 8,-3.582 8,-8"
       style="fill:#ffffff;fill-opacity:1;fill-rule:nonzero;stroke:none"
       id="path164"
       inkscape:connector-curvature="0" /><path
       d="m 19.6,15.4 c 0,-4.418 -3.582,-8 -8,-8 -4.418,0 -8,3.582 -8,8 0,4.418 3.582,8 8,8 4.418,0 8,-3.582 8,-8"
       style="fill:none;stroke:#000000;stroke-width:0.5;stroke-linecap:butt;stroke-linejoin:round;stroke-miterlimit:10;stroke-opacity:1;stroke-dasharray:none"
       id="path166"
       inkscape:connector-curvature="0" /><text
       id="text170"
       transform="scale(1,-1)"
       x="9.0254259"
       y="-11.789829"><tspan
         id="tspan172"
         y="-11.789829"
         x="9.0254259"
         style="font-size:10px;font-variant:normal;font-weight:normal;writing-mode:lr-tb;fill:#000000;fill-opacity:1;fill-rule:nonzero;stroke:none;font-family:Helvetica;-inkscape-font-specification:Helvetica">2</tspan></text>
<g
       id="g3705"
       transform="translate(-6.4,0)"><path
         inkscape:connector-curvature="0"
         id="path174"
         style="fill:none;stroke:#ff0000;stroke-width:0.5;stroke-linecap:butt;stroke-linejoin:round;stroke-miterlimit:10;stroke-opacity:1;stroke-dasharray:none"
         d="M 113.2,15.4 C 113.2,7.447 106.753,1 98.8,1 90.847,1 84.4,7.447 84.4,15.4 c 0,7.953 6.447,14.4 14.4,14.4 7.953,0 14.4,-6.447 14.4,-14.4" /><g
         transform="translate(22.4,0)"
         id="g3694"><path
           d="m 86.8,3.4 16.8,0 0,24 -16.8,0 0,-24 z"
           style="fill:#e6e6e6;fill-opacity:1;fill-rule:evenodd;stroke:none"
           id="path176"
           inkscape:connector-curvature="0" /><text
           id="text180"
           transform="scale(1,-1)"
           x="88.400002"
           y="-17"><tspan
             id="tspan182"
             sodipodi:role="line"
             y="-17"
             x="88.400002 93.959999"
             style="font-size:10px;font-variant:normal;font-weight:normal;writing-mode:lr-tb;fill:#ff0000;fill-opacity:1;fill-rule:nonzero;stroke:none;font-family:Helvetica;-inkscape-font-specification:Helvetica">1:</tspan></text>
<text
           id="text186"
           transform="scale(1,-1)"
           x="96.400002"
           y="-17"><tspan
             id="tspan188"
             y="-17"
             x="96.400002"
             style="font-size:10px;font-variant:normal;font-weight:normal;writing-mode:lr-tb;fill:#0000ff;fill-opacity:1;fill-rule:nonzero;stroke:none;font-family:Helvetica;-inkscape-font-specification:Helvetica">B</tspan></text>
<text
           id="text192"
           transform="scale(1,-1)"
           x="88.400002"
           y="-6.5999999"><tspan
             id="tspan194"
             sodipodi:role="line"
             y="-6.5999999"
             x="88.400002 93.959999"
             style="font-size:10px;font-variant:normal;font-weight:normal;writing-mode:lr-tb;fill:#ff0000;fill-opacity:1;fill-rule:nonzero;stroke:none;font-family:Helvetica;-inkscape-font-specification:Helvetica">2:</tspan></text>
<text
           id="text198"
           transform="scale(1,-1)"
           x="96.400002"
           y="-6.5999999"><tspan
             id="tspan200"
             y="-6.5999999"
             x="96.400002"
             style="font-size:10px;font-variant:normal;font-weight:normal;writing-mode:lr-tb;fill:#0000ff;fill-opacity:1;fill-rule:nonzero;stroke:none;font-family:Helvetica;-inkscape-font-specification:Helvetica">B</tspan></text>
</g></g><path
       d="m 89.2,15.4 c 0,-4.418 -3.582,-8 -8,-8 -4.418,0 -8,3.582 -8,8 0,4.418 3.582,8 8,8 4.418,0 8,-3.582 8,-8"
       style="fill:#ffffff;fill-opacity:1;fill-rule:nonzero;stroke:none"
       id="path202"
       inkscape:connector-curvature="0" /><path
       d="m 89.2,15.4 c 0,-4.418 -3.582,-8 -8,-8 -4.418,0 -8,3.582 -8,8 0,4.418 3.582,8 8,8 4.418,0 8,-3.582 8,-8"
       style="fill:none;stroke:#000000;stroke-width:0.5;stroke-linecap:butt;stroke-linejoin:round;stroke-miterlimit:10;stroke-opacity:1;stroke-dasharray:none"
       id="path204"
       inkscape:connector-curvature="0" /><text
       id="text208"
       transform="scale(1,-1)"
       x="78.410172"
       y="-11.789829"><tspan
         id="tspan210"
         y="-11.789829"
         x="78.410172"
         style="font-size:10px;font-variant:normal;font-weight:normal;writing-mode:lr-tb;fill:#000000;fill-opacity:1;fill-rule:nonzero;stroke:none;font-family:Helvetica;-inkscape-font-specification:Helvetica">3</tspan></text>
<g
       transform="matrix(-0.99995526,0.00945951,0.00945951,0.99995526,90.080107,-2.5711357)"
       id="g3564"><g
         id="g3566"
         transform="matrix(0.37860317,-0.14752191,0.07261209,0.18635312,-1557.2291,-391.8692)"><g
           id="g3568"
           clip-path="url(#clipPath110)"><path
             d="m 3344,4952 -16,16 8,16"
             style="fill:#ff0000;fill-opacity:1;fill-rule:evenodd;stroke:none"
             id="path3570"
             inkscape:connector-curvature="0" /><path
             d="m 3344,4952 -16,16 8,16 8,-32"
             style="fill:none;stroke:#000000;stroke-width:1.75394583;stroke-linecap:butt;stroke-linejoin:round;stroke-miterlimit:10;stroke-opacity:1;stroke-dasharray:none"
             id="path3572"
             inkscape:connector-curvature="0" /></g></g></g></g></svg>