<?xml version="1.0" encoding="UTF-8" standalone="no"?>
<!-- Created with Inkscape (http://www.inkscape.org/) -->

<svg
   xmlns:dc="http://purl.org/dc/elements/1.1/"
   xmlns:cc="http://creativecommons.org/ns#"
   xmlns:rdf="http://www.w3.org/1999/02/22-rdf-syntax-ns#"
   xmlns:svg="http://www.w3.org/2000/svg"
   xmlns="http://www.w3.org/2000/svg"
   xmlns:sodipodi="http://sodipodi.sourceforge.net/DTD/sodipodi-0.dtd"
   xmlns:inkscape="http://www.inkscape.org/namespaces/inkscape"
   id="svg2"
   version="1.1"
   inkscape:version="0.48.4 r9939"
   width="212.43307"
   height="139"
   xml:space="preserve"
   sodipodi:docname="complete_decision.pdf"><metadata
     id="metadata8"><rdf:RDF><cc:Work
         rdf:about=""><dc:format>image/svg+xml</dc:format><dc:type
           rdf:resource="http://purl.org/dc/dcmitype/StillImage" /><dc:title></dc:title></cc:Work></rdf:RDF></metadata><defs
     id="defs6"><clipPath
       clipPathUnits="userSpaceOnUse"
       id="clipPath28"><path
         d="m 808,5640 0,-3368 4480,0 0,3368 -4480,0 z"
         id="path30"
         inkscape:connector-curvature="0" /></clipPath><clipPath
       clipPathUnits="userSpaceOnUse"
       id="clipPath48"><path
         d="m 1392,5384 0,-2752 3480,0 0,2752 -3480,0 z"
         id="path50"
         inkscape:connector-curvature="0" /></clipPath><clipPath
       clipPathUnits="userSpaceOnUse"
       id="clipPath58"><path
         d="m 808,5640 0,-3368 4480,0 0,3368 -4480,0 z"
         id="path60"
         inkscape:connector-curvature="0" /></clipPath><clipPath
       clipPathUnits="userSpaceOnUse"
       id="clipPath80"><path
         d="m 1392,5384 0,-2752 3480,0 0,2752 -3480,0 z"
         id="path82"
         inkscape:connector-curvature="0" /></clipPath><clipPath
       clipPathUnits="userSpaceOnUse"
       id="clipPath90"><path
         d="m 808,5640 0,-3368 4480,0 0,3368 -4480,0 z"
         id="path92"
         inkscape:connector-curvature="0" /></clipPath><clipPath
       clipPathUnits="userSpaceOnUse"
       id="clipPath112"><path
         d="m 1392,5384 0,-2752 3480,0 0,2752 -3480,0 z"
         id="path114"
         inkscape:connector-curvature="0" /></clipPath><clipPath
       clipPathUnits="userSpaceOnUse"
       id="clipPath122"><path
         d="m 808,5640 0,-3368 4480,0 0,3368 -4480,0 z"
         id="path124"
         inkscape:connector-curvature="0" /></clipPath><clipPath
       clipPathUnits="userSpaceOnUse"
       id="clipPath144"><path
         d="m 1392,5384 0,-2752 3480,0 0,2752 -3480,0 z"
         id="path146"
         inkscape:connector-curvature="0" /></clipPath><clipPath
       clipPathUnits="userSpaceOnUse"
       id="clipPath154"><path
         d="m 808,5640 0,-3368 4480,0 0,3368 -4480,0 z"
         id="path156"
         inkscape:connector-curvature="0" /></clipPath><clipPath
       clipPathUnits="userSpaceOnUse"
       id="clipPath176"><path
         d="m 1392,5384 0,-2752 3480,0 0,2752 -3480,0 z"
         id="path178"
         inkscape:connector-curvature="0" /></clipPath><clipPath
       clipPathUnits="userSpaceOnUse"
       id="clipPath186"><path
         d="m 808,5640 0,-3368 4480,0 0,3368 -4480,0 z"
         id="path188"
         inkscape:connector-curvature="0" /></clipPath><clipPath
       clipPathUnits="userSpaceOnUse"
       id="clipPath208"><path
         d="m 1392,5384 0,-2752 3480,0 0,2752 -3480,0 z"
         id="path210"
         inkscape:connector-curvature="0" /></clipPath><clipPath
       clipPathUnits="userSpaceOnUse"
       id="clipPath218"><path
         d="m 808,5640 0,-3368 4480,0 0,3368 -4480,0 z"
         id="path220"
         inkscape:connector-curvature="0" /></clipPath></defs><sodipodi:namedview
     pagecolor="#ffffff"
     bordercolor="#666666"
     borderopacity="1"
     objecttolerance="10"
     gridtolerance="10"
     guidetolerance="10"
     inkscape:pageopacity="0"
     inkscape:pageshadow="2"
     inkscape:window-width="640"
     inkscape:window-height="480"
     id="namedview4"
     showgrid="false"
     inkscape:zoom="1.6857143"
     inkscape:cx="106.34154"
     inkscape:cy="69.749922"
     inkscape:window-x="0"
     inkscape:window-y="32"
     inkscape:window-maximized="0"
     inkscape:current-layer="g10"
     fit-margin-left="0.5"
     fit-margin-right="0.5"
     fit-margin-top="0"
     fit-margin-bottom="0"
     units="cm" /><g
     id="g10"
     inkscape:groupmode="layer"
     inkscape:label="complete_decision"
     transform="matrix(1.25,0,0,-1.25,16.966535,139.25)"><g
       clip-path="url(#clipPath112)"
       id="g110"
       transform="matrix(0.1,0,0,0.1,-241,-427)"><path
         style="fill:none;stroke:#ff0000;stroke-width:5;stroke-linecap:butt;stroke-linejoin:round;stroke-miterlimit:10;stroke-opacity:1;stroke-dasharray:none"
         d="M 2848,4840 C 2709.4734,4655.8966 2565.3143,4475.9896 2432,4288"
         id="path116"
         inkscape:connector-curvature="0" /></g><g
       clip-path="url(#clipPath144)"
       id="g142"
       transform="matrix(0.1,0,0,0.1,-241,-427)"><path
         style="fill:none;stroke:#ff0000;stroke-width:5;stroke-linecap:butt;stroke-linejoin:round;stroke-miterlimit:10;stroke-opacity:1;stroke-dasharray:none"
         d="m 2848,4840 c 11.0505,-184.1486 20.4077,-368.5024 40,-552"
         id="path148"
         inkscape:connector-curvature="0" /></g><g
       clip-path="url(#clipPath122)"
       id="g120"
       transform="matrix(0.1,0,0,0.1,-241,-427)"><path
         inkscape:connector-curvature="0"
         id="path126"
         style="fill:#e6e6e6;fill-opacity:1;fill-rule:evenodd;stroke:none"
         d="m 2576,4528 168,0 0,136 -168,0 0,-136 z" /><g
         transform="scale(10,10)"
         id="g128"><text
           id="text130"
           transform="matrix(1,0,0,-1,259.2,456)"><tspan
             id="tspan132"
             sodipodi:role="line"
             y="0"
             x="0 5.5599999"
             style="font-size:10px;font-variant:normal;font-weight:normal;writing-mode:lr-tb;fill:#ff0000;fill-opacity:1;fill-rule:nonzero;stroke:none;font-family:Helvetica;-inkscape-font-specification:Helvetica">1:</tspan></text>
</g><g
         transform="scale(10,10)"
         id="g134"><text
           id="text136"
           transform="matrix(1,0,0,-1,267.2,456)"><tspan
             id="tspan138"
             y="0"
             x="0"
             style="font-size:10px;font-variant:normal;font-weight:normal;writing-mode:lr-tb;fill:#0000ff;fill-opacity:1;fill-rule:nonzero;stroke:none;font-family:Helvetica;-inkscape-font-specification:Helvetica">A</tspan></text>
</g></g><g
       clip-path="url(#clipPath48)"
       id="g46"
       transform="matrix(0.1,0,0,0.1,-241,-427)"><path
         style="fill:none;stroke:#ff0000;stroke-width:5;stroke-linecap:butt;stroke-linejoin:round;stroke-miterlimit:10;stroke-opacity:1;stroke-dasharray:none"
         d="m 2848,4840 c 86.9663,183.1732 185.9704,360.3667 276,544 90.0296,-183.6333 189.0337,-360.8268 276,-544"
         id="path52"
         inkscape:connector-curvature="0"
         sodipodi:nodetypes="ccc" /></g><g
       clip-path="url(#clipPath176)"
       id="g174"
       transform="matrix(0.1,0,0,0.1,-241,-427)"><path
         style="fill:none;stroke:#ff0000;stroke-width:5;stroke-linecap:butt;stroke-linejoin:round;stroke-miterlimit:10;stroke-opacity:1;stroke-dasharray:none"
         d="m 3400,4840 c -10.9624,-184.1538 -20.2907,-368.5131 -40,-552"
         id="path180"
         inkscape:connector-curvature="0" /></g><g
       clip-path="url(#clipPath208)"
       id="g206"
       transform="matrix(0.1,0,0,0.1,-241,-427)"><path
         style="fill:none;stroke:#ff0000;stroke-width:5;stroke-linecap:butt;stroke-linejoin:round;stroke-miterlimit:10;stroke-opacity:1;stroke-dasharray:none"
         d="m 3400,4840 c 139.1733,-183.614 281.7866,-364.6768 416,-552"
         id="path212"
         inkscape:connector-curvature="0" /></g><g
       clip-path="url(#clipPath28)"
       id="g26"
       transform="matrix(0.1,0,0,0.1,-241,-427)"><path
         inkscape:connector-curvature="0"
         id="path32"
         style="fill:#0000ff;fill-opacity:1;fill-rule:nonzero;stroke:none"
         d="m 2864,4840 c 0,-8.84 -7.16,-16 -16,-16 -8.84,0 -16,7.16 -16,16 0,8.84 7.16,16 16,16 8.84,0 16,-7.16 16,-16" /><path
         inkscape:connector-curvature="0"
         id="path34"
         style="fill:#0000ff;fill-opacity:1;fill-rule:nonzero;stroke:none"
         d="m 3416,4840 c 0,-8.84 -7.16,-16 -16,-16 -8.84,0 -16,7.16 -16,16 0,8.84 7.16,16 16,16 8.84,0 16,-7.16 16,-16" /><path
         inkscape:connector-curvature="0"
         id="path36"
         style="fill:#0000ff;fill-opacity:1;fill-rule:nonzero;stroke:none"
         d="m 2448,4288 c 0,-8.84 -7.16,-16 -16,-16 -8.84,0 -16,7.16 -16,16 0,8.84 7.16,16 16,16 8.84,0 16,-7.16 16,-16" /><path
         inkscape:connector-curvature="0"
         id="path38"
         style="fill:#0000ff;fill-opacity:1;fill-rule:nonzero;stroke:none"
         d="m 2904,4288 c 0,-8.84 -7.16,-16 -16,-16 -8.84,0 -16,7.16 -16,16 0,8.84 7.16,16 16,16 8.84,0 16,-7.16 16,-16" /><path
         inkscape:connector-curvature="0"
         id="path40"
         style="fill:#0000ff;fill-opacity:1;fill-rule:nonzero;stroke:none"
         d="m 3376,4288 c 0,-8.84 -7.16,-16 -16,-16 -8.84,0 -16,7.16 -16,16 0,8.84 7.16,16 16,16 8.84,0 16,-7.16 16,-16" /><path
         inkscape:connector-curvature="0"
         id="path42"
         style="fill:#0000ff;fill-opacity:1;fill-rule:nonzero;stroke:none"
         d="m 3832,4288 c 0,-8.84 -7.16,-16 -16,-16 -8.84,0 -16,7.16 -16,16 0,8.84 7.16,16 16,16 8.84,0 16,-7.16 16,-16" /></g><g
       clip-path="url(#clipPath58)"
       id="g56"
       transform="matrix(0.1,0,0,0.1,-241,-427)"><path
         inkscape:connector-curvature="0"
         id="path62"
         style="fill:#e6e6e6;fill-opacity:1;fill-rule:evenodd;stroke:none"
         d="m 2928,5096 168,0 0,136 -168,0 0,-136 z" /><g
         transform="scale(10,10)"
         id="g64"><text
           id="text66"
           transform="matrix(1,0,0,-1,294.4,512.8)"><tspan
             id="tspan68"
             sodipodi:role="line"
             y="0"
             x="0 5.5599999"
             style="font-size:10px;font-variant:normal;font-weight:normal;writing-mode:lr-tb;fill:#ff0000;fill-opacity:1;fill-rule:nonzero;stroke:none;font-family:Helvetica;-inkscape-font-specification:Helvetica">1:</tspan></text>
</g><g
         transform="scale(10,10)"
         id="g70"><text
           id="text72"
           transform="matrix(1,0,0,-1,302.4,512.8)"><tspan
             id="tspan74"
             y="0"
             x="0"
             style="font-size:10px;font-variant:normal;font-weight:normal;writing-mode:lr-tb;fill:#0000ff;fill-opacity:1;fill-rule:nonzero;stroke:none;font-family:Helvetica;-inkscape-font-specification:Helvetica">A</tspan></text>
</g></g><g
       clip-path="url(#clipPath80)"
       id="g78"
       transform="matrix(0.1,0,0,0.1,-241,-427)" /><g
       clip-path="url(#clipPath90)"
       id="g88"
       transform="matrix(0.1,0,0,0.1,-241,-427)"><path
         inkscape:connector-curvature="0"
         id="path94"
         style="fill:#e6e6e6;fill-opacity:1;fill-rule:evenodd;stroke:none"
         d="m 3144,5096 168,0 0,136 -168,0 0,-136 z" /><g
         transform="scale(10,10)"
         id="g96"><text
           id="text98"
           transform="matrix(1,0,0,-1,316,512.8)"><tspan
             id="tspan100"
             sodipodi:role="line"
             y="0"
             x="0 5.5599999"
             style="font-size:10px;font-variant:normal;font-weight:normal;writing-mode:lr-tb;fill:#ff0000;fill-opacity:1;fill-rule:nonzero;stroke:none;font-family:Helvetica;-inkscape-font-specification:Helvetica">2:</tspan></text>
</g><g
         transform="scale(10,10)"
         id="g102"><text
           id="text104"
           transform="matrix(1,0,0,-1,324,512.8)"><tspan
             id="tspan106"
             y="0"
             x="0"
             style="font-size:10px;font-variant:normal;font-weight:normal;writing-mode:lr-tb;fill:#0000ff;fill-opacity:1;fill-rule:nonzero;stroke:none;font-family:Helvetica;-inkscape-font-specification:Helvetica">B</tspan></text>
</g></g><g
       clip-path="url(#clipPath154)"
       id="g152"
       transform="matrix(0.1,0,0,0.1,-241,-427)"><path
         inkscape:connector-curvature="0"
         id="path158"
         style="fill:#e6e6e6;fill-opacity:1;fill-rule:evenodd;stroke:none"
         d="m 2768,4584 168,0 0,136 -168,0 0,-136 z" /><g
         transform="scale(10,10)"
         id="g160"><text
           id="text162"
           transform="matrix(1,0,0,-1,278.4,461.6)"><tspan
             id="tspan164"
             sodipodi:role="line"
             y="0"
             x="0 5.5599999"
             style="font-size:10px;font-variant:normal;font-weight:normal;writing-mode:lr-tb;fill:#ff0000;fill-opacity:1;fill-rule:nonzero;stroke:none;font-family:Helvetica;-inkscape-font-specification:Helvetica">2:</tspan></text>
</g><g
         transform="scale(10,10)"
         id="g166"><text
           id="text168"
           transform="matrix(1,0,0,-1,286.4,461.6)"><tspan
             id="tspan170"
             y="0"
             x="0"
             style="font-size:10px;font-variant:normal;font-weight:normal;writing-mode:lr-tb;fill:#0000ff;fill-opacity:1;fill-rule:nonzero;stroke:none;font-family:Helvetica;-inkscape-font-specification:Helvetica">A</tspan></text>
</g></g><g
       clip-path="url(#clipPath186)"
       id="g184"
       transform="matrix(0.1,0,0,0.1,-241,-427)"><path
         inkscape:connector-curvature="0"
         id="path190"
         style="fill:#e6e6e6;fill-opacity:1;fill-rule:evenodd;stroke:none"
         d="m 3304,4584 168,0 0,136 -168,0 0,-136 z" /><g
         transform="scale(10,10)"
         id="g192"><text
           id="text194"
           transform="matrix(1,0,0,-1,332,461.6)"><tspan
             id="tspan196"
             sodipodi:role="line"
             y="0"
             x="0 5.5599999"
             style="font-size:10px;font-variant:normal;font-weight:normal;writing-mode:lr-tb;fill:#ff0000;fill-opacity:1;fill-rule:nonzero;stroke:none;font-family:Helvetica;-inkscape-font-specification:Helvetica">1:</tspan></text>
</g><g
         transform="scale(10,10)"
         id="g198"><text
           id="text200"
           transform="matrix(1,0,0,-1,340,461.6)"><tspan
             id="tspan202"
             y="0"
             x="0"
             style="font-size:10px;font-variant:normal;font-weight:normal;writing-mode:lr-tb;fill:#0000ff;fill-opacity:1;fill-rule:nonzero;stroke:none;font-family:Helvetica;-inkscape-font-specification:Helvetica">B</tspan></text>
</g></g><g
       clip-path="url(#clipPath218)"
       id="g216"
       transform="matrix(0.1,0,0,0.1,-241,-427)"><path
         inkscape:connector-curvature="0"
         id="path222"
         style="fill:#e6e6e6;fill-opacity:1;fill-rule:evenodd;stroke:none"
         d="m 3496,4528 168,0 0,136 -168,0 0,-136 z" /><g
         transform="scale(10,10)"
         id="g224"><text
           id="text226"
           transform="matrix(1,0,0,-1,351.2,456)"><tspan
             id="tspan228"
             sodipodi:role="line"
             y="0"
             x="0 5.5599999"
             style="font-size:10px;font-variant:normal;font-weight:normal;writing-mode:lr-tb;fill:#ff0000;fill-opacity:1;fill-rule:nonzero;stroke:none;font-family:Helvetica;-inkscape-font-specification:Helvetica">2:</tspan></text>
</g><g
         transform="scale(10,10)"
         id="g230"><text
           id="text232"
           transform="matrix(1,0,0,-1,359.2,456)"><tspan
             id="tspan234"
             y="0"
             x="0"
             style="font-size:10px;font-variant:normal;font-weight:normal;writing-mode:lr-tb;fill:#0000ff;fill-opacity:1;fill-rule:nonzero;stroke:none;font-family:Helvetica;-inkscape-font-specification:Helvetica">B</tspan></text>
</g></g></g></svg>