<?xml version="1.0" encoding="UTF-8" standalone="no"?>
<!-- Created with Inkscape (http://www.inkscape.org/) -->

<svg
   xmlns:dc="http://purl.org/dc/elements/1.1/"
   xmlns:cc="http://creativecommons.org/ns#"
   xmlns:rdf="http://www.w3.org/1999/02/22-rdf-syntax-ns#"
   xmlns:svg="http://www.w3.org/2000/svg"
   xmlns="http://www.w3.org/2000/svg"
   xmlns:xlink="http://www.w3.org/1999/xlink"
   xmlns:sodipodi="http://sodipodi.sourceforge.net/DTD/sodipodi-0.dtd"
   xmlns:inkscape="http://www.inkscape.org/namespaces/inkscape"
   id="svg2"
   version="1.1"
   inkscape:version="0.48.4 r9939"
   width="1038.6573"
   height="900"
   xml:space="preserve"
   sodipodi:docname="random_cliques.pdf"><sodipodi:namedview
     pagecolor="#ffffff"
     bordercolor="#666666"
     borderopacity="1"
     objecttolerance="10"
     gridtolerance="10"
     guidetolerance="10"
     inkscape:pageopacity="0"
     inkscape:pageshadow="2"
     inkscape:window-width="1794"
     inkscape:window-height="948"
     id="namedview4"
     showgrid="false"
     fit-margin-top="0"
     fit-margin-left="0"
     fit-margin-right="0"
     fit-margin-bottom="0"
     inkscape:zoom="0.65555556"
     inkscape:cx="394.17972"
     inkscape:cy="734.31584"
     inkscape:window-x="0"
     inkscape:window-y="32"
     inkscape:window-maximized="0"
     inkscape:current-layer="g10" /><metadata
     id="metadata8"><rdf:RDF><cc:Work
         rdf:about=""><dc:format>image/svg+xml</dc:format><dc:type
           rdf:resource="http://purl.org/dc/dcmitype/StillImage" /><dc:title></dc:title></cc:Work></rdf:RDF></metadata><defs
     id="defs6"><marker
       style="overflow:visible"
       id="DotS"
       refX="0"
       refY="0"
       orient="auto"
       inkscape:stockid="DotS"><path
         inkscape:connector-curvature="0"
         transform="matrix(0.2,0,0,0.2,1.48,0.2)"
         style="fill-rule:evenodd;stroke:#000000;stroke-width:1pt"
         d="m -2.5,-1 c 0,2.76 -2.24,5 -5,5 -2.76,0 -5,-2.24 -5,-5 0,-2.76 2.24,-5 5,-5 2.76,0 5,2.24 5,5 z"
         id="path4033" /></marker><clipPath
       id="clipPath18"
       clipPathUnits="userSpaceOnUse"><path
         inkscape:connector-curvature="0"
         id="path20"
         d="M 0,0 612,0 612,792 0,792 0,0 z" /></clipPath><clipPath
       id="clipPath28"
       clipPathUnits="userSpaceOnUse"><path
         inkscape:connector-curvature="0"
         id="path30"
         d="m 808,5640 0,-3368 4480,0 0,3368 -4480,0 z" /></clipPath><clipPath
       id="clipPath38"
       clipPathUnits="userSpaceOnUse"><path
         inkscape:connector-curvature="0"
         id="path40"
         d="m 1760,5384 0,-2744 2744,0 0,2744 -2744,0 z" /></clipPath><clipPath
       id="clipPath50"
       clipPathUnits="userSpaceOnUse"><path
         inkscape:connector-curvature="0"
         id="path52"
         d="m 808,5640 0,-3368 4480,0 0,3368 -4480,0 z" /></clipPath><marker
       style="overflow:visible"
       id="DotSn"
       refX="0"
       refY="0"
       orient="auto"
       inkscape:stockid="DotSn"><path
         inkscape:connector-curvature="0"
         transform="matrix(0.2,0,0,0.2,1.48,0.2)"
         style="fill:#000080;fill-rule:evenodd;stroke:#000080;stroke-width:1pt"
         d="m -2.5,-1 c 0,2.76 -2.24,5 -5,5 -2.76,0 -5,-2.24 -5,-5 0,-2.76 2.24,-5 5,-5 2.76,0 5,2.24 5,5 z"
         id="path3996" /></marker><marker
       style="overflow:visible"
       id="DotSZ"
       refX="0"
       refY="0"
       orient="auto"
       inkscape:stockid="DotSZ"><path
         inkscape:connector-curvature="0"
         transform="matrix(0.2,0,0,0.2,1.48,0.2)"
         style="fill:#800000;fill-rule:evenodd;stroke:#800000;stroke-width:1pt"
         d="m -2.5,-1 c 0,2.76 -2.24,5 -5,5 -2.76,0 -5,-2.24 -5,-5 0,-2.76 2.24,-5 5,-5 2.76,0 5,2.24 5,5 z"
         id="path3999" /></marker><marker
       style="overflow:visible"
       id="DotSf"
       refX="0"
       refY="0"
       orient="auto"
       inkscape:stockid="DotSf"><path
         inkscape:connector-curvature="0"
         transform="matrix(0.2,0,0,0.2,1.48,0.2)"
         style="fill:#008000;fill-rule:evenodd;stroke:#008000;stroke-width:1pt"
         d="m -2.5,-1 c 0,2.76 -2.24,5 -5,5 -2.76,0 -5,-2.24 -5,-5 0,-2.76 2.24,-5 5,-5 2.76,0 5,2.24 5,5 z"
         id="path4002" /></marker><marker
       style="overflow:visible"
       id="DotSt"
       refX="0"
       refY="0"
       orient="auto"
       inkscape:stockid="DotSt"><path
         inkscape:connector-curvature="0"
         transform="matrix(0.2,0,0,0.2,1.48,0.2)"
         style="fill:#808000;fill-rule:evenodd;stroke:#808000;stroke-width:1pt"
         d="m -2.5,-1 c 0,2.76 -2.24,5 -5,5 -2.76,0 -5,-2.24 -5,-5 0,-2.76 2.24,-5 5,-5 2.76,0 5,2.24 5,5 z"
         id="path4005" /></marker></defs><g
     transform="matrix(1.25,0,0,-1.25,1090.2679,481.72283)"
     inkscape:label="random_cliques"
     inkscape:groupmode="layer"
     id="g10"><image
       transform="scale(1,-1)"
       width="720"
       height="720"
       xlink:href="file:///home/josh/MATLAB/censi/censi_new/Formalization/media/clique_adj_large.png"
       id="image3163"
       x="-761.28839"
       y="-385.37827" /><path
       sodipodi:nodetypes="cc"
       inkscape:connector-curvature="0"
       id="path3954"
       d="m -867.69227,356.88353 120.1277,13.76086"
       style="fill:none;stroke:#000000;stroke-width:2;stroke-linecap:butt;stroke-linejoin:miter;stroke-miterlimit:4;stroke-opacity:1;stroke-dasharray:none;marker-end:url(#DotSZ)" /><path
       sodipodi:nodetypes="cc"
       inkscape:connector-curvature="0"
       id="path3956"
       d="m -867.69227,290.23203 193.75435,6.97515"
       style="fill:none;stroke:#000000;stroke-width:2;stroke-linecap:butt;stroke-linejoin:miter;stroke-miterlimit:4;stroke-opacity:1;stroke-dasharray:none;marker-end:url(#DotSn)" /><path
       sodipodi:nodetypes="cc"
       inkscape:connector-curvature="0"
       id="path3958"
       d="m -867.69227,223.58053 217.39238,49.60111"
       style="fill:none;stroke:#000000;stroke-width:2;stroke-linecap:butt;stroke-linejoin:miter;stroke-miterlimit:4;stroke-opacity:1;stroke-dasharray:none;marker-end:url(#DotSt)" /><path
       sodipodi:nodetypes="cc"
       inkscape:connector-curvature="0"
       id="path3960"
       d="m -867.69227,156.92903 265.05595,68.20153"
       style="fill:none;stroke:#000000;stroke-width:2;stroke-linecap:butt;stroke-linejoin:miter;stroke-miterlimit:4;stroke-opacity:1;stroke-dasharray:none;marker-end:url(#DotSf)" /><g
       transform="matrix(2.5403349,0,0,2.5403349,-468.20524,-283.28083)"
       id="g3925"
       style="stroke-width:0.78729779;stroke-miterlimit:4;stroke-dasharray:none"><path
         sodipodi:type="arc"
         style="fill:#ffffff;fill-opacity:1;stroke:#000000;stroke-width:0.98412222;stroke-miterlimit:4;stroke-opacity:1;stroke-dasharray:none;stroke-dashoffset:0"
         id="path3919"
         sodipodi:cx="-186.67374"
         sodipodi:cy="44.046608"
         sodipodi:rx="11.631356"
         sodipodi:ry="11.631356"
         d="m -175.04238,44.046608 c 0,6.423821 -5.20754,11.631356 -11.63136,11.631356 -6.42382,0 -11.63135,-5.207535 -11.63135,-11.631356 0,-6.423821 5.20753,-11.631356 11.63135,-11.631356 6.42382,0 11.63136,5.207535 11.63136,11.631356 z"
         transform="matrix(0.8,0,0,-0.8,0,288)" /><text
         xml:space="preserve"
         style="font-size:15.09401131000000085px;font-style:normal;font-weight:normal;line-height:125%;letter-spacing:0px;word-spacing:0px;fill:#000000;fill-opacity:1;stroke:none;font-family:Serif;-inkscape-font-specification:Serif;font-stretch:normal;font-variant:normal"
         x="-153.9682"
         y="-247.26091"
         id="text3921"
         sodipodi:linespacing="125%"
         transform="scale(1,-1)"><tspan
           sodipodi:role="line"
           id="tspan3923"
           x="-153.9682"
           y="-247.26091">1</tspan></text>
</g><g
       transform="matrix(2.5403349,0,0,2.5403349,-468.20524,-348.899)"
       id="g3930"
       style="stroke-width:0.78729779;stroke-miterlimit:4;stroke-dasharray:none"><path
         transform="matrix(0.8,0,0,-0.8,0,288)"
         d="m -175.04238,44.046608 c 0,6.423821 -5.20754,11.631356 -11.63136,11.631356 -6.42382,0 -11.63135,-5.207535 -11.63135,-11.631356 0,-6.423821 5.20753,-11.631356 11.63135,-11.631356 6.42382,0 11.63136,5.207535 11.63136,11.631356 z"
         sodipodi:ry="11.631356"
         sodipodi:rx="11.631356"
         sodipodi:cy="44.046608"
         sodipodi:cx="-186.67374"
         id="path3932"
         style="fill:#ffffff;fill-opacity:1;stroke:#000000;stroke-width:0.98412222;stroke-miterlimit:4;stroke-opacity:1;stroke-dasharray:none;stroke-dashoffset:0"
         sodipodi:type="arc" /><text
         transform="scale(1,-1)"
         sodipodi:linespacing="125%"
         id="text3934"
         y="-247.26091"
         x="-153.9682"
         style="font-size:15.09401131000000085px;font-style:normal;font-weight:normal;line-height:125%;letter-spacing:0px;word-spacing:0px;fill:#000000;fill-opacity:1;stroke:none;font-family:Serif;-inkscape-font-specification:Serif;font-stretch:normal;font-variant:normal"
         xml:space="preserve"><tspan
           y="-247.26091"
           x="-153.9682"
           id="tspan3936"
           sodipodi:role="line">4</tspan></text>
</g><g
       id="g3938"
       transform="matrix(2.5403349,0,0,2.5403349,-468.20524,-480.1353)"
       style="stroke-width:0.78729779;stroke-miterlimit:4;stroke-dasharray:none"><path
         sodipodi:type="arc"
         style="fill:#ffffff;fill-opacity:1;stroke:#000000;stroke-width:0.98412222;stroke-miterlimit:4;stroke-opacity:1;stroke-dasharray:none;stroke-dashoffset:0"
         id="path3940"
         sodipodi:cx="-186.67374"
         sodipodi:cy="44.046608"
         sodipodi:rx="11.631356"
         sodipodi:ry="11.631356"
         d="m -175.04238,44.046608 c 0,6.423821 -5.20754,11.631356 -11.63136,11.631356 -6.42382,0 -11.63135,-5.207535 -11.63135,-11.631356 0,-6.423821 5.20753,-11.631356 11.63135,-11.631356 6.42382,0 11.63136,5.207535 11.63136,11.631356 z"
         transform="matrix(0.8,0,0,-0.8,0,288)" /><text
         xml:space="preserve"
         style="font-size:15.09401131000000085px;font-style:normal;font-weight:normal;line-height:125%;letter-spacing:0px;word-spacing:0px;fill:#000000;fill-opacity:1;stroke:none;font-family:Serif;-inkscape-font-specification:Serif;font-stretch:normal;font-variant:normal"
         x="-153.9682"
         y="-247.26091"
         id="text3942"
         sodipodi:linespacing="125%"
         transform="scale(1,-1)"><tspan
           sodipodi:role="line"
           id="tspan3944"
           x="-153.9682"
           y="-247.26091">7</tspan></text>
</g><g
       transform="matrix(2.5403349,0,0,2.5403349,-468.20524,-414.51716)"
       id="g3946"
       style="stroke-width:0.78729779;stroke-miterlimit:4;stroke-dasharray:none"><path
         transform="matrix(0.8,0,0,-0.8,0,288)"
         d="m -175.04238,44.046608 c 0,6.423821 -5.20754,11.631356 -11.63136,11.631356 -6.42382,0 -11.63135,-5.207535 -11.63135,-11.631356 0,-6.423821 5.20753,-11.631356 11.63135,-11.631356 6.42382,0 11.63136,5.207535 11.63136,11.631356 z"
         sodipodi:ry="11.631356"
         sodipodi:rx="11.631356"
         sodipodi:cy="44.046608"
         sodipodi:cx="-186.67374"
         id="path3948"
         style="fill:#ffffff;fill-opacity:1;stroke:#000000;stroke-width:0.98412222;stroke-miterlimit:4;stroke-opacity:1;stroke-dasharray:none;stroke-dashoffset:0"
         sodipodi:type="arc" /><text
         transform="scale(1,-1)"
         sodipodi:linespacing="125%"
         id="text3950"
         y="-247.26091"
         x="-153.9682"
         style="font-size:15.09401131000000085px;font-style:normal;font-weight:normal;line-height:125%;letter-spacing:0px;word-spacing:0px;fill:#000000;fill-opacity:1;stroke:none;font-family:Serif;-inkscape-font-specification:Serif;font-stretch:normal;font-variant:normal"
         xml:space="preserve"><tspan
           y="-247.26091"
           x="-153.9682"
           id="tspan3952"
           sodipodi:role="line">5</tspan></text>
</g></g></svg>