<?xml version="1.0" encoding="UTF-8" standalone="no"?>
<!-- Created with Inkscape (http://www.inkscape.org/) -->

<svg
   xmlns:dc="http://purl.org/dc/elements/1.1/"
   xmlns:cc="http://creativecommons.org/ns#"
   xmlns:rdf="http://www.w3.org/1999/02/22-rdf-syntax-ns#"
   xmlns:svg="http://www.w3.org/2000/svg"
   xmlns="http://www.w3.org/2000/svg"
   xmlns:sodipodi="http://sodipodi.sourceforge.net/DTD/sodipodi-0.dtd"
   xmlns:inkscape="http://www.inkscape.org/namespaces/inkscape"
   id="svg2"
   version="1.1"
   inkscape:version="0.48.4 r9939"
   width="298.96432"
   height="490.77499"
   xml:space="preserve"
   sodipodi:docname="random_alg-2.pdf"><metadata
     id="metadata8"><rdf:RDF><cc:Work
         rdf:about=""><dc:format>image/svg+xml</dc:format><dc:type
           rdf:resource="http://purl.org/dc/dcmitype/StillImage" /><dc:title></dc:title></cc:Work></rdf:RDF></metadata><defs
     id="defs6" /><sodipodi:namedview
     pagecolor="#ffffff"
     bordercolor="#666666"
     borderopacity="1"
     objecttolerance="10"
     gridtolerance="10"
     guidetolerance="10"
     inkscape:pageopacity="0"
     inkscape:pageshadow="2"
     inkscape:window-width="1474"
     inkscape:window-height="761"
     id="namedview4"
     showgrid="false"
     fit-margin-top="0"
     fit-margin-left="1"
     fit-margin-right="1"
     fit-margin-bottom="0"
     units="cm"
     inkscape:zoom="0.47918782"
     inkscape:cx="155.84248"
     inkscape:cy="245.62595"
     inkscape:window-x="1610"
     inkscape:window-y="162"
     inkscape:window-maximized="0"
     inkscape:current-layer="g10" /><g
     id="g10"
     inkscape:groupmode="layer"
     inkscape:label="random_alg-2"
     transform="matrix(1.25,0,0,-1.25,35.418755,491.4)"><g
       id="g12"
       transform="scale(0.1,0.1)"><path
         d="m 1226.2,3620 c 0,99.41 -80.59,180 -180,180 -99.411,0 -180.001,-80.59 -180.001,-180 0,-99.41 80.59,-180 180.001,-180 99.41,0 180,80.59 180,180"
         style="fill:none;stroke:#000000;stroke-width:10;stroke-linecap:butt;stroke-linejoin:miter;stroke-miterlimit:1;stroke-opacity:1;stroke-dasharray:none"
         id="path14"
         inkscape:connector-curvature="0" /><g
         id="g16"
         transform="scale(10,10)"><text
           transform="matrix(1,0,0,-1,101.12,358.3)"
           id="text18"><tspan
             style="font-size:14px;font-variant:normal;font-weight:normal;writing-mode:lr-tb;fill:#000000;fill-opacity:1;fill-rule:nonzero;stroke:none;font-family:Times New Roman;-inkscape-font-specification:Times-Roman"
             x="0"
             y="0"
             id="tspan20">1</tspan></text>
</g><path
         d="m 1190.4,3732.4 c 107.5,39.3 215.8,1.8 215.8,-112.4 0,-76.7 -48.9,-118.8 -113.6,-126.3"
         style="fill:none;stroke:#ff0000;stroke-width:10;stroke-linecap:butt;stroke-linejoin:miter;stroke-miterlimit:1;stroke-opacity:1;stroke-dasharray:none"
         id="path22"
         inkscape:connector-curvature="0" /><path
         d="m 1284.7,3459.4 -94.3,48.2 103.8,21.2"
         style="fill:#ff0000;fill-opacity:1;fill-rule:nonzero;stroke:none"
         id="path24"
         inkscape:connector-curvature="0" /><path
         d="m 1284.7,3459.4 -94.3,48.2 103.8,21.2 -9.5,-69.4 z"
         style="fill:none;stroke:#ff0000;stroke-width:10;stroke-linecap:butt;stroke-linejoin:miter;stroke-miterlimit:1;stroke-opacity:1;stroke-dasharray:none"
         id="path26"
         inkscape:connector-curvature="0" /><g
         id="g28"
         transform="scale(10,10)"><text
           transform="matrix(1,0,0,-1,140.62,387)"
           id="text30"><tspan
             style="font-size:10px;font-variant:normal;writing-mode:lr-tb;fill:#000000;fill-opacity:1;fill-rule:nonzero;stroke:none;font-family:Nimbus Mono L;-inkscape-font-specification:NimbusMonL-Regu"
             x="0 4.5999999 9.1999998 13.8"
             y="0"
             sodipodi:role="line"
             id="tspan32">1:G </tspan><tspan
             style="font-size:10px;font-variant:normal;writing-mode:lr-tb;fill:#000000;fill-opacity:1;fill-rule:nonzero;stroke:none;font-family:Nimbus Mono L;-inkscape-font-specification:NimbusMonL-Regu"
             x="0.5 4.9000001 9.3000002 13.7"
             y="11"
             sodipodi:role="line"
             id="tspan34">2:C </tspan><tspan
             style="font-size:10px;font-variant:normal;writing-mode:lr-tb;fill:#000000;fill-opacity:1;fill-rule:nonzero;stroke:none;font-family:Nimbus Mono L;-inkscape-font-specification:NimbusMonL-Regu"
             x="0.5 4.9000001 9.3000002 13.7"
             y="22"
             sodipodi:role="line"
             id="tspan36">4:A </tspan><tspan
             style="font-size:10px;font-variant:normal;writing-mode:lr-tb;fill:#000000;fill-opacity:1;fill-rule:nonzero;stroke:none;font-family:Nimbus Mono L;-inkscape-font-specification:NimbusMonL-Regu"
             x="0.5 4.9000001 9.3000002 13.7"
             y="33"
             sodipodi:role="line"
             id="tspan38">5:B </tspan><tspan
             style="font-size:10px;font-variant:normal;writing-mode:lr-tb;fill:#000000;fill-opacity:1;fill-rule:nonzero;stroke:none;font-family:Nimbus Mono L;-inkscape-font-specification:NimbusMonL-Regu"
             x="0.5 4.9000001 9.3000002 13.7"
             y="44"
             sodipodi:role="line"
             id="tspan40">6:B </tspan><tspan
             style="font-size:10px;font-variant:normal;writing-mode:lr-tb;fill:#000000;fill-opacity:1;fill-rule:nonzero;stroke:none;font-family:Nimbus Mono L;-inkscape-font-specification:NimbusMonL-Regu"
             x="0 4.5999999 9.1999998 13.8"
             y="55"
             sodipodi:role="line"
             id="tspan42">7:G </tspan></text>
</g><path
         d="m 396.199,2410 c 0,99.41 -80.59,180 -180,180 -99.41,0 -179.9998,-80.59 -179.9998,-180 0,-99.41 80.5898,-180 179.9998,-180 99.41,0 180,80.59 180,180"
         style="fill:none;stroke:#000000;stroke-width:10;stroke-linecap:butt;stroke-linejoin:miter;stroke-miterlimit:1;stroke-opacity:1;stroke-dasharray:none"
         id="path44"
         inkscape:connector-curvature="0" /><g
         id="g46"
         transform="scale(10,10)"><text
           transform="matrix(1,0,0,-1,18.1199,237.3)"
           id="text48"><tspan
             style="font-size:14px;font-variant:normal;font-weight:normal;writing-mode:lr-tb;fill:#000000;fill-opacity:1;fill-rule:nonzero;stroke:none;font-family:Times New Roman;-inkscape-font-specification:Times-Roman"
             x="0"
             y="0"
             id="tspan50">4</tspan></text>
</g><path
         d="m 944.199,3470.7 c -72.699,-99.9 -172.301,-237.9 -258,-360.7 -104.398,-149.6 -127.301,-189.2 -230,-340 -26.898,-39.4 -55.5,-81.3 -83.301,-121.9"
         style="fill:none;stroke:#ff0000;stroke-width:10;stroke-linecap:butt;stroke-linejoin:miter;stroke-miterlimit:1;stroke-opacity:1;stroke-dasharray:none"
         id="path52"
         inkscape:connector-curvature="0" /><path
         d="m 399.898,2625.6 -85.398,-62.7 27.699,102.3"
         style="fill:#ff0000;fill-opacity:1;fill-rule:nonzero;stroke:none"
         id="path54"
         inkscape:connector-curvature="0" /><path
         d="m 399.898,2625.6 -85.398,-62.7 27.699,102.3 57.699,-39.6 z"
         style="fill:none;stroke:#ff0000;stroke-width:10;stroke-linecap:butt;stroke-linejoin:miter;stroke-miterlimit:1;stroke-opacity:1;stroke-dasharray:none"
         id="path56"
         inkscape:connector-curvature="0" /><g
         id="g58"
         transform="scale(10,10)"><text
           transform="matrix(1,0,0,-1,68.6199,291.5)"
           id="text60"><tspan
             style="font-size:10px;font-variant:normal;writing-mode:lr-tb;fill:#000000;fill-opacity:1;fill-rule:nonzero;stroke:none;font-family:Nimbus Mono L;-inkscape-font-specification:NimbusMonL-Regu"
             x="0 4.4000001 8.8000002 13.2"
             y="0"
             sodipodi:role="line"
             id="tspan62">8:B </tspan></text>
</g><path
         d="m 1416.2,190 c 0,99.41 -80.59,180 -180,180 -99.41,0 -180,-80.59 -180,-180 0,-99.4102 80.59,-180 180,-180 99.41,0 180,80.5898 180,180"
         style="fill:none;stroke:#000000;stroke-width:10;stroke-linecap:butt;stroke-linejoin:miter;stroke-miterlimit:1;stroke-opacity:1;stroke-dasharray:none"
         id="path64"
         inkscape:connector-curvature="0" /><g
         id="g66"
         transform="scale(10,10)"><text
           transform="matrix(1,0,0,-1,120.12,15.3)"
           id="text68"><tspan
             style="font-size:14px;font-variant:normal;font-weight:normal;writing-mode:lr-tb;fill:#000000;fill-opacity:1;fill-rule:nonzero;stroke:none;font-family:Times New Roman;-inkscape-font-specification:Times-Roman"
             x="0"
             y="0"
             id="tspan70">5</tspan></text>
</g><path
         d="m 1087.1,3444.2 c 22.8,-97 50.3,-222 69.1,-334.2 115,-687.9 196.1,-2083.5 210,-2440 2.1,-53.301 9.4,-67.5 0,-120 -5.9,-32.5 -14.5,-66 -24.7,-98.699"
         style="fill:none;stroke:#ff0000;stroke-width:10;stroke-linecap:butt;stroke-linejoin:miter;stroke-miterlimit:1;stroke-opacity:1;stroke-dasharray:none"
         id="path72"
         inkscape:connector-curvature="0" /><path
         d="m 1374.5,439.5 -66.5,-82.602 0.5,106"
         style="fill:#ff0000;fill-opacity:1;fill-rule:nonzero;stroke:none"
         id="path74"
         inkscape:connector-curvature="0" /><path
         d="m 1374.5,439.5 -66.5,-82.602 0.5,106 66,-23.398 z"
         style="fill:none;stroke:#ff0000;stroke-width:10;stroke-linecap:butt;stroke-linejoin:miter;stroke-miterlimit:1;stroke-opacity:1;stroke-dasharray:none"
         id="path76"
         inkscape:connector-curvature="0" /><g
         id="g78"
         transform="scale(10,10)"><text
           transform="matrix(1,0,0,-1,131.62,169.5)"
           id="text80"><tspan
             style="font-size:10px;font-variant:normal;writing-mode:lr-tb;fill:#000000;fill-opacity:1;fill-rule:nonzero;stroke:none;font-family:Nimbus Mono L;-inkscape-font-specification:NimbusMonL-Regu"
             x="0 4.5999999 9.1999998 13.8"
             y="0"
             sodipodi:role="line"
             id="tspan82">9:G </tspan></text>
</g><path
         d="m 148.898,2579.5 c -51.0972,147.8 -97.9996,368.6 -2.699,530.5 134,227.7 413.301,359.2 625.403,429.6"
         style="fill:none;stroke:#ff0000;stroke-width:10;stroke-linecap:butt;stroke-linejoin:miter;stroke-miterlimit:1;stroke-opacity:1;stroke-dasharray:none"
         id="path84"
         inkscape:connector-curvature="0" /><path
         d="M 763.602,3573.7 869.398,3569.4 784,3506.8"
         style="fill:#ff0000;fill-opacity:1;fill-rule:nonzero;stroke:none"
         id="path86"
         inkscape:connector-curvature="0" /><path
         d="m 763.602,3573.7 105.796,-4.3 -85.398,-62.6 -20.398,66.9 z"
         style="fill:none;stroke:#ff0000;stroke-width:10;stroke-linecap:butt;stroke-linejoin:miter;stroke-miterlimit:1;stroke-opacity:1;stroke-dasharray:none"
         id="path88"
         inkscape:connector-curvature="0" /><g
         id="g90"
         transform="scale(10,10)"><text
           transform="matrix(1,0,0,-1,17.1199,302.5)"
           id="text92"><tspan
             style="font-size:10px;font-variant:normal;writing-mode:lr-tb;fill:#000000;fill-opacity:1;fill-rule:nonzero;stroke:none;font-family:Nimbus Mono L;-inkscape-font-specification:NimbusMonL-Regu"
             x="0 4.4000001 8.8000002 13.2"
             y="0"
             sodipodi:role="line"
             id="tspan94">2:B </tspan><tspan
             style="font-size:10px;font-variant:normal;writing-mode:lr-tb;fill:#000000;fill-opacity:1;fill-rule:nonzero;stroke:none;font-family:Nimbus Mono L;-inkscape-font-specification:NimbusMonL-Regu"
             x="2 5.5999999 9.1999998 12.8"
             y="11"
             sodipodi:role="line"
             id="tspan96">9:J </tspan><tspan
             style="font-size:10px;font-variant:normal;writing-mode:lr-tb;fill:#000000;fill-opacity:1;fill-rule:nonzero;stroke:none;font-family:Nimbus Mono L;-inkscape-font-specification:NimbusMonL-Regu"
             x="-2.5 2 6.5 11 15.5"
             y="22"
             sodipodi:role="line"
             id="tspan98">10:F </tspan></text>
</g><path
         d="M 129.602,2248.2 C 100.199,2188.4 71,2117.9 56.1992,2050 c -62.39842,-286.6 -73.5976,-376 0,-660 C 125.102,1124.2 175,1056.3 356.199,850 540.398,640.301 803.102,457.199 993.5,339.199"
         style="fill:none;stroke:#ff0000;stroke-width:10;stroke-linecap:butt;stroke-linejoin:miter;stroke-miterlimit:1;stroke-opacity:1;stroke-dasharray:none"
         id="path100"
         inkscape:connector-curvature="0" /><path
         d="m 1012.9,368.301 67.6,-81.602 -103.699,21.699"
         style="fill:#ff0000;fill-opacity:1;fill-rule:nonzero;stroke:none"
         id="path102"
         inkscape:connector-curvature="0" /><path
         d="m 1012.9,368.301 67.6,-81.602 -103.699,21.699 36.099,59.903 z"
         style="fill:none;stroke:#ff0000;stroke-width:10;stroke-linecap:butt;stroke-linejoin:miter;stroke-miterlimit:1;stroke-opacity:1;stroke-dasharray:none"
         id="path104"
         inkscape:connector-curvature="0" /><g
         id="g106"
         transform="scale(10,10)"><text
           transform="matrix(1,0,0,-1,35.6199,100.5)"
           id="text108"><tspan
             style="font-size:10px;font-variant:normal;writing-mode:lr-tb;fill:#000000;fill-opacity:1;fill-rule:nonzero;stroke:none;font-family:Nimbus Mono L;-inkscape-font-specification:NimbusMonL-Regu"
             x="0 4.5999999 9.1999998 13.8"
             y="0"
             sodipodi:role="line"
             id="tspan110">6:G </tspan></text>
</g><path
         d="m 1036.2,1030 c 0,99.41 -80.591,180 -180.001,180 -99.41,0 -180,-80.59 -180,-180 0,-99.41 80.59,-180 180,-180 99.41,0 180.001,80.59 180.001,180"
         style="fill:none;stroke:#000000;stroke-width:10;stroke-linecap:butt;stroke-linejoin:miter;stroke-miterlimit:1;stroke-opacity:1;stroke-dasharray:none"
         id="path112"
         inkscape:connector-curvature="0" /><g
         id="g114"
         transform="scale(10,10)"><text
           transform="matrix(1,0,0,-1,82.1199,99.3)"
           id="text116"><tspan
             style="font-size:14px;font-variant:normal;font-weight:normal;writing-mode:lr-tb;fill:#000000;fill-opacity:1;fill-rule:nonzero;stroke:none;font-family:Times New Roman;-inkscape-font-specification:Times-Roman"
             x="0"
             y="0"
             id="tspan118">7</tspan></text>
</g><path
         d="m 318.398,2261.7 c 43.204,-62.5 91.801,-138.7 127.801,-211.7 137.403,-278.6 107.5,-374.5 230,-660 15.199,-35.4 32.403,-72.1 50,-107.9"
         style="fill:none;stroke:#ff0000;stroke-width:10;stroke-linecap:butt;stroke-linejoin:miter;stroke-miterlimit:1;stroke-opacity:1;stroke-dasharray:none"
         id="path120"
         inkscape:connector-curvature="0" /><path
         d="m 758.301,1296.1 14.301,-105 -76.602,73.2"
         style="fill:#ff0000;fill-opacity:1;fill-rule:nonzero;stroke:none"
         id="path122"
         inkscape:connector-curvature="0" /><path
         d="m 758.301,1296.1 14.301,-105 -76.602,73.2 62.301,31.8 z"
         style="fill:none;stroke:#ff0000;stroke-width:10;stroke-linecap:butt;stroke-linejoin:miter;stroke-miterlimit:1;stroke-opacity:1;stroke-dasharray:none"
         id="path124"
         inkscape:connector-curvature="0" /><g
         id="g126"
         transform="scale(10,10)"><text
           transform="matrix(1,0,0,-1,67.6199,169.5)"
           id="text128"><tspan
             style="font-size:10px;font-variant:normal;writing-mode:lr-tb;fill:#000000;fill-opacity:1;fill-rule:nonzero;stroke:none;font-family:Nimbus Mono L;-inkscape-font-specification:NimbusMonL-Regu"
             x="0 4.5999999 9.1999998 13.8"
             y="0"
             sodipodi:role="line"
             id="tspan130">1:G </tspan></text>
</g><path
         d="m 1360.8,325.199 c 54.2,62.403 112.7,142 145.4,224.801 245.1,621 163,837.6 80,1500 -60.5,482.4 -93.2,607.1 -270,1060 -34.6,88.5 -81.3,181.2 -126.2,262.4"
         style="fill:none;stroke:#ff0000;stroke-width:10;stroke-linecap:butt;stroke-linejoin:miter;stroke-miterlimit:1;stroke-opacity:1;stroke-dasharray:none"
         id="path132"
         inkscape:connector-curvature="0" /><path
         d="m 1158.3,3357.3 -19.4,104.2 80.1,-69.4"
         style="fill:#ff0000;fill-opacity:1;fill-rule:nonzero;stroke:none"
         id="path134"
         inkscape:connector-curvature="0" /><path
         d="m 1158.3,3357.3 -19.4,104.2 80.1,-69.4 -60.7,-34.8 z"
         style="fill:none;stroke:#ff0000;stroke-width:10;stroke-linecap:butt;stroke-linejoin:miter;stroke-miterlimit:1;stroke-opacity:1;stroke-dasharray:none"
         id="path136"
         inkscape:connector-curvature="0" /><g
         id="g138"
         transform="scale(10,10)"><text
           transform="matrix(1,0,0,-1,168.62,197)"
           id="text140"><tspan
             style="font-size:10px;font-variant:normal;writing-mode:lr-tb;fill:#000000;fill-opacity:1;fill-rule:nonzero;stroke:none;font-family:Nimbus Mono L;-inkscape-font-specification:NimbusMonL-Regu"
             x="0 3.5999999 7.1999998 10.8"
             y="0"
             sodipodi:role="line"
             id="tspan142">1:J </tspan><tspan
             style="font-size:10px;font-variant:normal;writing-mode:lr-tb;fill:#000000;fill-opacity:1;fill-rule:nonzero;stroke:none;font-family:Nimbus Mono L;-inkscape-font-specification:NimbusMonL-Regu"
             x="-2 2.4000001 6.8000002 11.2"
             y="11"
             sodipodi:role="line"
             id="tspan144">2:A </tspan><tspan
             style="font-size:10px;font-variant:normal;writing-mode:lr-tb;fill:#000000;fill-opacity:1;fill-rule:nonzero;stroke:none;font-family:Nimbus Mono L;-inkscape-font-specification:NimbusMonL-Regu"
             x="0 3.5999999 7.1999998 10.8"
             y="22"
             sodipodi:role="line"
             id="tspan146">4:J </tspan><tspan
             style="font-size:10px;font-variant:normal;writing-mode:lr-tb;fill:#000000;fill-opacity:1;fill-rule:nonzero;stroke:none;font-family:Nimbus Mono L;-inkscape-font-specification:NimbusMonL-Regu"
             x="-1.5 2.7 6.9000001 11.1"
             y="33"
             sodipodi:role="line"
             id="tspan148">5:F </tspan><tspan
             style="font-size:10px;font-variant:normal;writing-mode:lr-tb;fill:#000000;fill-opacity:1;fill-rule:nonzero;stroke:none;font-family:Nimbus Mono L;-inkscape-font-specification:NimbusMonL-Regu"
             x="-2 2.4000001 6.8000002 11.2"
             y="44"
             sodipodi:role="line"
             id="tspan150">7:C </tspan><tspan
             style="font-size:10px;font-variant:normal;writing-mode:lr-tb;fill:#000000;fill-opacity:1;fill-rule:nonzero;stroke:none;font-family:Nimbus Mono L;-inkscape-font-specification:NimbusMonL-Regu"
             x="-3 1 5 9 13"
             y="55"
             sodipodi:role="line"
             id="tspan152">10:I </tspan></text>
</g><path
         d="m 1402.8,263.801 c 99.6,16.398 193.4,-8.199 193.4,-73.801 0,-42 -38.5,-67.199 -92.3,-75.602"
         style="fill:none;stroke:#ff0000;stroke-width:10;stroke-linecap:butt;stroke-linejoin:miter;stroke-miterlimit:1;stroke-opacity:1;stroke-dasharray:none"
         id="path154"
         inkscape:connector-curvature="0" /><path
         d="m 1502.2,79.3984 -99.4,36.8006 100.6,33.199"
         style="fill:#ff0000;fill-opacity:1;fill-rule:nonzero;stroke:none"
         id="path156"
         inkscape:connector-curvature="0" /><path
         d="m 1502.2,79.3984 -99.4,36.8006 100.6,33.199 -1.2,-69.9996 z"
         style="fill:none;stroke:#ff0000;stroke-width:10;stroke-linecap:butt;stroke-linejoin:miter;stroke-miterlimit:1;stroke-opacity:1;stroke-dasharray:none"
         id="path158"
         inkscape:connector-curvature="0" /><g
         id="g160"
         transform="scale(10,10)"><text
           transform="matrix(1,0,0,-1,159.62,16.5)"
           id="text162"><tspan
             style="font-size:10px;font-variant:normal;writing-mode:lr-tb;fill:#000000;fill-opacity:1;fill-rule:nonzero;stroke:none;font-family:Nimbus Mono L;-inkscape-font-specification:NimbusMonL-Regu"
             x="0 4.4000001 8.8000002 13.2"
             y="0"
             sodipodi:role="line"
             id="tspan164">6:E </tspan></text>
</g><path
         d="m 883.301,1210.6 c 8.301,56.9 16.898,120.8 22.898,179.4 72,700 112.401,1528.2 129.701,1947.5"
         style="fill:none;stroke:#ff0000;stroke-width:10;stroke-linecap:butt;stroke-linejoin:miter;stroke-miterlimit:1;stroke-opacity:1;stroke-dasharray:none"
         id="path166"
         inkscape:connector-curvature="0" /><path
         d="m 1001.1,3341.2 38.9,98.5 31,-101.3"
         style="fill:#ff0000;fill-opacity:1;fill-rule:nonzero;stroke:none"
         id="path168"
         inkscape:connector-curvature="0" /><path
         d="m 1001.1,3341.2 38.9,98.5 31,-101.3 -69.9,2.8 z"
         style="fill:none;stroke:#ff0000;stroke-width:10;stroke-linecap:butt;stroke-linejoin:miter;stroke-miterlimit:1;stroke-opacity:1;stroke-dasharray:none"
         id="path170"
         inkscape:connector-curvature="0" /><g
         id="g172"
         transform="scale(10,10)"><text
           transform="matrix(1,0,0,-1,99.6199,244)"
           id="text174"><tspan
             style="font-size:10px;font-variant:normal;writing-mode:lr-tb;fill:#000000;fill-opacity:1;fill-rule:nonzero;stroke:none;font-family:Nimbus Mono L;-inkscape-font-specification:NimbusMonL-Regu"
             x="0 3.5999999 7.1999998 10.8"
             y="0"
             sodipodi:role="line"
             id="tspan176">1:I </tspan><tspan
             style="font-size:10px;font-variant:normal;writing-mode:lr-tb;fill:#000000;fill-opacity:1;fill-rule:nonzero;stroke:none;font-family:Nimbus Mono L;-inkscape-font-specification:NimbusMonL-Regu"
             x="0 3.5999999 7.1999998 10.8"
             y="11"
             sodipodi:role="line"
             id="tspan178">6:I </tspan></text>
</g><path
         d="M 681,1077.5 C 520.801,1122.1 293,1213.8 186.199,1390 50.3008,1614.4 83.3984,1921.2 134.398,2137.6"
         style="fill:none;stroke:#ff0000;stroke-width:10;stroke-linecap:butt;stroke-linejoin:miter;stroke-miterlimit:1;stroke-opacity:1;stroke-dasharray:none"
         id="path180"
         inkscape:connector-curvature="0" /><path
         d="m 101,2148.1 59.199,87.8 8.5,-105.7"
         style="fill:#ff0000;fill-opacity:1;fill-rule:nonzero;stroke:none"
         id="path182"
         inkscape:connector-curvature="0" /><path
         d="m 101,2148.1 59.199,87.8 8.5,-105.7 -67.699,17.9 z"
         style="fill:none;stroke:#ff0000;stroke-width:10;stroke-linecap:butt;stroke-linejoin:miter;stroke-miterlimit:1;stroke-opacity:1;stroke-dasharray:none"
         id="path184"
         inkscape:connector-curvature="0" /><g
         id="g186"
         transform="scale(10,10)"><text
           transform="matrix(1,0,0,-1,18.6199,169.5)"
           id="text188"><tspan
             style="font-size:10px;font-variant:normal;writing-mode:lr-tb;fill:#000000;fill-opacity:1;fill-rule:nonzero;stroke:none;font-family:Nimbus Mono L;-inkscape-font-specification:NimbusMonL-Regu"
             x="0 4.4000001 8.8000002 13.2"
             y="0"
             sodipodi:role="line"
             id="tspan190">2:E </tspan></text>
</g><path
         d="M 929.5,861.898 C 983.602,745.102 1058.4,583.602 1120.6,449.5"
         style="fill:none;stroke:#ff0000;stroke-width:10;stroke-linecap:butt;stroke-linejoin:miter;stroke-miterlimit:1;stroke-opacity:1;stroke-dasharray:none"
         id="path192"
         inkscape:connector-curvature="0" /><path
         d="m 1152.9,463.102 10.2,-105.5 -73.8,76"
         style="fill:#ff0000;fill-opacity:1;fill-rule:nonzero;stroke:none"
         id="path194"
         inkscape:connector-curvature="0" /><path
         d="m 1152.9,463.102 10.2,-105.5 -73.8,76 63.6,29.5 z"
         style="fill:none;stroke:#ff0000;stroke-width:10;stroke-linecap:butt;stroke-linejoin:miter;stroke-miterlimit:1;stroke-opacity:1;stroke-dasharray:none"
         id="path196"
         inkscape:connector-curvature="0" /><g
         id="g198"
         transform="scale(10,10)"><text
           transform="matrix(1,0,0,-1,106.62,58.5)"
           id="text200"><tspan
             style="font-size:10px;font-variant:normal;writing-mode:lr-tb;fill:#000000;fill-opacity:1;fill-rule:nonzero;stroke:none;font-family:Nimbus Mono L;-inkscape-font-specification:NimbusMonL-Regu"
             x="0 4.6666698 9.3333397 14.00001 18.666679"
             y="0"
             sodipodi:role="line"
             id="tspan202">10:C </tspan></text>
</g></g></g></svg>