<?xml version="1.0" encoding="UTF-8" standalone="no"?>
<!-- Created with Inkscape (http://www.inkscape.org/) -->

<svg
   xmlns:dc="http://purl.org/dc/elements/1.1/"
   xmlns:cc="http://creativecommons.org/ns#"
   xmlns:rdf="http://www.w3.org/1999/02/22-rdf-syntax-ns#"
   xmlns:svg="http://www.w3.org/2000/svg"
   xmlns="http://www.w3.org/2000/svg"
   xmlns:sodipodi="http://sodipodi.sourceforge.net/DTD/sodipodi-0.dtd"
   xmlns:inkscape="http://www.inkscape.org/namespaces/inkscape"
   id="svg2"
   version="1.1"
   inkscape:version="0.48.4 r9939"
   width="126.43432"
   height="138.99875"
   xml:space="preserve"
   sodipodi:docname="simple_decision.pdf"><metadata
     id="metadata8"><rdf:RDF><cc:Work
         rdf:about=""><dc:format>image/svg+xml</dc:format><dc:type
           rdf:resource="http://purl.org/dc/dcmitype/StillImage" /><dc:title></dc:title></cc:Work></rdf:RDF></metadata><defs
     id="defs6"><clipPath
       clipPathUnits="userSpaceOnUse"
       id="clipPath18"><path
         d="m 0,111.398 74,0 L 74,0 0,0 0,111.398 z"
         id="path20"
         inkscape:connector-curvature="0" /></clipPath><clipPath
       clipPathUnits="userSpaceOnUse"
       id="clipPath28"><path
         d="M 2,1 15,1 15,58 2,58 2,1 z"
         id="path30"
         inkscape:connector-curvature="0" /></clipPath><clipPath
       clipPathUnits="userSpaceOnUse"
       id="clipPath38"><path
         d="M 2,58 15,58 15,1 2,1 2,58 z"
         id="path40"
         inkscape:connector-curvature="0" /></clipPath><clipPath
       clipPathUnits="userSpaceOnUse"
       id="clipPath48"><path
         d="M 2,1 15,1 15,58 2,58 2,1 z"
         id="path50"
         inkscape:connector-curvature="0" /></clipPath><clipPath
       clipPathUnits="userSpaceOnUse"
       id="clipPath62"><path
         d="M 60,1 73,1 73,58 60,58 60,1 z"
         id="path64"
         inkscape:connector-curvature="0" /></clipPath><clipPath
       clipPathUnits="userSpaceOnUse"
       id="clipPath72"><path
         d="M 60,58 73,58 73,1 60,1 60,58 z"
         id="path74"
         inkscape:connector-curvature="0" /></clipPath><clipPath
       clipPathUnits="userSpaceOnUse"
       id="clipPath82"><path
         d="M 60,1 73,1 73,58 60,58 60,1 z"
         id="path84"
         inkscape:connector-curvature="0" /></clipPath><clipPath
       clipPathUnits="userSpaceOnUse"
       id="clipPath96"><path
         d="m 13,56 49,0 0,56 -49,0 0,-56 z"
         id="path98"
         inkscape:connector-curvature="0" /></clipPath><clipPath
       clipPathUnits="userSpaceOnUse"
       id="clipPath106"><path
         d="m 13,112 49,0 0,-56 -49,0 0,56 z"
         id="path108"
         inkscape:connector-curvature="0" /></clipPath><clipPath
       clipPathUnits="userSpaceOnUse"
       id="clipPath116"><path
         d="m 13,56 49,0 0,56 -49,0 0,-56 z"
         id="path118"
         inkscape:connector-curvature="0" /></clipPath><clipPath
       clipPathUnits="userSpaceOnUse"
       id="clipPath128"><path
         d="M 1,59 74,59 74,0 1,0 1,59 z"
         id="path130"
         inkscape:connector-curvature="0" /></clipPath><clipPath
       clipPathUnits="userSpaceOnUse"
       id="clipPath138"><path
         d="M 1,0 74,0 74,59 1,59 1,0 z"
         id="path140"
         inkscape:connector-curvature="0" /></clipPath><clipPath
       clipPathUnits="userSpaceOnUse"
       id="clipPath156"><path
         d="m 17,93 18,0 0,-15 -18,0 0,15 z"
         id="path158"
         inkscape:connector-curvature="0" /></clipPath><clipPath
       clipPathUnits="userSpaceOnUse"
       id="clipPath166"><path
         d="m 17,78 18,0 0,15 -18,0 0,-15 z"
         id="path168"
         inkscape:connector-curvature="0" /></clipPath><clipPath
       clipPathUnits="userSpaceOnUse"
       id="clipPath186"><path
         d="m 39,93 18,0 0,-15 -18,0 0,15 z"
         id="path188"
         inkscape:connector-curvature="0" /></clipPath><clipPath
       clipPathUnits="userSpaceOnUse"
       id="clipPath196"><path
         d="m 39,78 18,0 0,15 -18,0 0,-15 z"
         id="path198"
         inkscape:connector-curvature="0" /></clipPath><clipPath
       clipPathUnits="userSpaceOnUse"
       id="clipPath216"><path
         d="M 1,44 18,44 18,29 1,29 1,44 z"
         id="path218"
         inkscape:connector-curvature="0" /></clipPath><clipPath
       clipPathUnits="userSpaceOnUse"
       id="clipPath226"><path
         d="M 1,29 18,29 18,44 1,44 1,29 z"
         id="path228"
         inkscape:connector-curvature="0" /></clipPath><clipPath
       clipPathUnits="userSpaceOnUse"
       id="clipPath246"><path
         d="m 56,44 17,0 0,-15 -17,0 0,15 z"
         id="path248"
         inkscape:connector-curvature="0" /></clipPath><clipPath
       clipPathUnits="userSpaceOnUse"
       id="clipPath256"><path
         d="m 56,29 17,0 0,15 -17,0 0,-15 z"
         id="path258"
         inkscape:connector-curvature="0" /></clipPath></defs><sodipodi:namedview
     pagecolor="#ffffff"
     bordercolor="#666666"
     borderopacity="1"
     objecttolerance="10"
     gridtolerance="10"
     guidetolerance="10"
     inkscape:pageopacity="0"
     inkscape:pageshadow="2"
     inkscape:window-width="640"
     inkscape:window-height="480"
     id="namedview4"
     showgrid="false"
     units="cm"
     fit-margin-left="0.5"
     fit-margin-right="0.5"
     fit-margin-top="0"
     fit-margin-bottom="0"
     inkscape:zoom="1.6857143"
     inkscape:cx="62.716535"
     inkscape:cy="69.75117"
     inkscape:window-x="0"
     inkscape:window-y="32"
     inkscape:window-maximized="0"
     inkscape:current-layer="g10" /><g
     id="g10"
     inkscape:groupmode="layer"
     inkscape:label="simple_decision"
     transform="matrix(1.25,0,0,-1.25,16.466535,139.2475)"><g
       id="g12" /><g
       id="g14"><g
         id="g16"
         clip-path="url(#clipPath18)"><g
           id="g22"><g
             id="g24"><g
               id="g26"
               clip-path="url(#clipPath28)"><g
                 id="g32" /><g
                 id="g34"><g
                   id="g36"
                   clip-path="url(#clipPath38)"><g
                     id="g42"><g
                       id="g44"><g
                         id="g46"
                         clip-path="url(#clipPath48)"><g
                           id="g52"><path
                             d="M 13.801,57 C 10.141,38.586 6.246,20.219 2.602,1.801"
                             style="fill:none;stroke:#ff0000;stroke-width:0.5;stroke-linecap:butt;stroke-linejoin:round;stroke-miterlimit:10;stroke-opacity:1;stroke-dasharray:none"
                             id="path54"
                             inkscape:connector-curvature="0" /></g></g></g></g></g></g></g></g></g><g
           id="g56"><g
             id="g58"><g
               id="g60"
               clip-path="url(#clipPath62)"><g
                 id="g66" /><g
                 id="g68"><g
                   id="g70"
                   clip-path="url(#clipPath72)"><g
                     id="g76"><g
                       id="g78"><g
                         id="g80"
                         clip-path="url(#clipPath82)"><g
                           id="g86"><path
                             d="M 61,57 C 64.656,38.586 68.551,20.219 72.199,1.801"
                             style="fill:none;stroke:#ff0000;stroke-width:0.5;stroke-linecap:butt;stroke-linejoin:round;stroke-miterlimit:10;stroke-opacity:1;stroke-dasharray:none"
                             id="path88"
                             inkscape:connector-curvature="0" /></g></g></g></g></g></g></g></g></g><g
           id="g90"><g
             id="g92"><g
               id="g94"
               clip-path="url(#clipPath96)"><g
                 id="g100" /><g
                 id="g102"><g
                   id="g104"
                   clip-path="url(#clipPath106)"><g
                     id="g110"><g
                       id="g112"><g
                         id="g114"
                         clip-path="url(#clipPath116)"><g
                           id="g120"><path
                             d="M 61,57 C 53.535,75.246 44.402,92.801 37.801,111.398 29.543,93.379 21.922,75.078 13.801,57"
                             style="fill:none;stroke:#ff0000;stroke-width:0.5;stroke-linecap:butt;stroke-linejoin:round;stroke-miterlimit:10;stroke-opacity:1;stroke-dasharray:none"
                             id="path122"
                             inkscape:connector-curvature="0" /></g></g></g></g></g></g></g></g></g></g></g><g
       id="g124"><g
         id="g126"
         clip-path="url(#clipPath128)"><g
           id="g132"><g
             id="g134"><g
               id="g136"
               clip-path="url(#clipPath138)"><g
                 id="g142"><path
                   d="m 15.398,57 c 0,-0.883 -0.714,-1.602 -1.597,-1.602 -0.887,0 -1.602,0.719 -1.602,1.602 0,0.883 0.715,1.602 1.602,1.602 0.883,0 1.597,-0.719 1.597,-1.602"
                   style="fill:#0000ff;fill-opacity:1;fill-rule:nonzero;stroke:none"
                   id="path144"
                   inkscape:connector-curvature="0" /><path
                   d="m 62.602,57 c 0,-0.883 -0.719,-1.602 -1.602,-1.602 -0.883,0 -1.602,0.719 -1.602,1.602 0,0.883 0.719,1.602 1.602,1.602 0.883,0 1.602,-0.719 1.602,-1.602"
                   style="fill:#0000ff;fill-opacity:1;fill-rule:nonzero;stroke:none"
                   id="path146"
                   inkscape:connector-curvature="0" /><path
                   d="M 4.199,1.801 C 4.199,0.914 3.484,0.199 2.602,0.199 1.715,0.199 1,0.914 1,1.801 c 0,0.883 0.715,1.597 1.602,1.597 0.882,0 1.597,-0.714 1.597,-1.597"
                   style="fill:#0000ff;fill-opacity:1;fill-rule:nonzero;stroke:none"
                   id="path148"
                   inkscape:connector-curvature="0" /><path
                   d="m 73.801,1.801 c 0,-0.887 -0.715,-1.602 -1.602,-1.602 -0.883,0 -1.597,0.715 -1.597,1.602 0,0.883 0.714,1.597 1.597,1.597 0.887,0 1.602,-0.714 1.602,-1.597"
                   style="fill:#0000ff;fill-opacity:1;fill-rule:nonzero;stroke:none"
                   id="path150"
                   inkscape:connector-curvature="0" /></g></g></g></g></g></g><g
       id="g152"><g
         id="g154"
         clip-path="url(#clipPath156)"><g
           id="g160"><g
             id="g162"><g
               id="g164"
               clip-path="url(#clipPath166)"><g
                 id="g170"><path
                   d="m 17.801,92.199 16.801,0 0,-13.598 -16.801,0 0,13.598 z"
                   style="fill:#e6e6e6;fill-opacity:1;fill-rule:evenodd;stroke:none"
                   id="path172"
                   inkscape:connector-curvature="0" /><text
                   transform="matrix(1,0,0,-1,19.4,81.8)"
                   id="text174"><tspan
                     style="font-size:10px;font-variant:normal;font-weight:normal;writing-mode:lr-tb;fill:#ff0000;fill-opacity:1;fill-rule:nonzero;stroke:none;font-family:TeXGyreHeros;-inkscape-font-specification:TeXGyreHeros-Regular"
                     x="0 5.5599999"
                     y="0"
                     sodipodi:role="line"
                     id="tspan176">1:</tspan></text>
<text
                   transform="matrix(1,0,0,-1,27.4,81.8)"
                   id="text178"><tspan
                     style="font-size:10px;font-variant:normal;font-weight:normal;writing-mode:lr-tb;fill:#0000ff;fill-opacity:1;fill-rule:nonzero;stroke:none;font-family:TeXGyreHeros;-inkscape-font-specification:TeXGyreHeros-Regular"
                     x="0"
                     y="0"
                     id="tspan180">A</tspan></text>
</g></g></g></g></g></g><g
       id="g182"><g
         id="g184"
         clip-path="url(#clipPath186)"><g
           id="g190"><g
             id="g192"><g
               id="g194"
               clip-path="url(#clipPath196)"><g
                 id="g200"><path
                   d="m 39.398,92.199 16.801,0 0,-13.598 -16.801,0 0,13.598 z"
                   style="fill:#e6e6e6;fill-opacity:1;fill-rule:evenodd;stroke:none"
                   id="path202"
                   inkscape:connector-curvature="0" /><text
                   transform="matrix(1,0,0,-1,41,81.8)"
                   id="text204"><tspan
                     style="font-size:10px;font-variant:normal;font-weight:normal;writing-mode:lr-tb;fill:#ff0000;fill-opacity:1;fill-rule:nonzero;stroke:none;font-family:TeXGyreHeros;-inkscape-font-specification:TeXGyreHeros-Regular"
                     x="0 5.5599999"
                     y="0"
                     sodipodi:role="line"
                     id="tspan206">2:</tspan></text>
<text
                   transform="matrix(1,0,0,-1,49,81.8)"
                   id="text208"><tspan
                     style="font-size:10px;font-variant:normal;font-weight:normal;writing-mode:lr-tb;fill:#0000ff;fill-opacity:1;fill-rule:nonzero;stroke:none;font-family:TeXGyreHeros;-inkscape-font-specification:TeXGyreHeros-Regular"
                     x="0"
                     y="0"
                     id="tspan210">B</tspan></text>
</g></g></g></g></g></g><g
       id="g212"><g
         id="g214"
         clip-path="url(#clipPath216)"><g
           id="g220"><g
             id="g222"><g
               id="g224"
               clip-path="url(#clipPath226)"><g
                 id="g230"><path
                   d="m 1,43.398 16.801,0 0,-13.598 L 1,29.8 1,43.398 z"
                   style="fill:#e6e6e6;fill-opacity:1;fill-rule:evenodd;stroke:none"
                   id="path232"
                   inkscape:connector-curvature="0" /><text
                   transform="matrix(1,0,0,-1,2.6,33)"
                   id="text234"><tspan
                     style="font-size:10px;font-variant:normal;font-weight:normal;writing-mode:lr-tb;fill:#ff0000;fill-opacity:1;fill-rule:nonzero;stroke:none;font-family:TeXGyreHeros;-inkscape-font-specification:TeXGyreHeros-Regular"
                     x="0 5.5599999"
                     y="0"
                     sodipodi:role="line"
                     id="tspan236">2:</tspan></text>
<text
                   transform="matrix(1,0,0,-1,10.6,33)"
                   id="text238"><tspan
                     style="font-size:10px;font-variant:normal;font-weight:normal;writing-mode:lr-tb;fill:#0000ff;fill-opacity:1;fill-rule:nonzero;stroke:none;font-family:TeXGyreHeros;-inkscape-font-specification:TeXGyreHeros-Regular"
                     x="0"
                     y="0"
                     id="tspan240">A</tspan></text>
</g></g></g></g></g></g><g
       id="g242"><g
         id="g244"
         clip-path="url(#clipPath246)"><g
           id="g250"><g
             id="g252"><g
               id="g254"
               clip-path="url(#clipPath256)"><g
                 id="g260"><path
                   d="m 56.199,43.398 16.801,0 0,-13.598 -16.801,0 0,13.598 z"
                   style="fill:#e6e6e6;fill-opacity:1;fill-rule:evenodd;stroke:none"
                   id="path262"
                   inkscape:connector-curvature="0" /><text
                   transform="matrix(1,0,0,-1,57.8,33)"
                   id="text264"><tspan
                     style="font-size:10px;font-variant:normal;font-weight:normal;writing-mode:lr-tb;fill:#ff0000;fill-opacity:1;fill-rule:nonzero;stroke:none;font-family:TeXGyreHeros;-inkscape-font-specification:TeXGyreHeros-Regular"
                     x="0 5.5599999"
                     y="0"
                     sodipodi:role="line"
                     id="tspan266">1:</tspan></text>
<text
                   transform="matrix(1,0,0,-1,65.8,33)"
                   id="text268"><tspan
                     style="font-size:10px;font-variant:normal;font-weight:normal;writing-mode:lr-tb;fill:#0000ff;fill-opacity:1;fill-rule:nonzero;stroke:none;font-family:TeXGyreHeros;-inkscape-font-specification:TeXGyreHeros-Regular"
                     x="0"
                     y="0"
                     id="tspan270">B</tspan></text>
</g></g></g></g></g></g></g></svg>