<?xml version="1.0" encoding="UTF-8" standalone="no"?>
<!DOCTYPE svg PUBLIC "-//W3C//DTD SVG 1.1//EN"
 "http://www.w3.org/Graphics/SVG/1.1/DTD/svg11.dtd">
<!-- Generated by graphviz version 2.36.0 (20140111.2315)
 -->
<!-- Title: G Pages: 1 -->
<svg width="111pt" height="720pt"
 viewBox="0.00 0.00 111.50 720.00" xmlns="http://www.w3.org/2000/svg" xmlns:xlink="http://www.w3.org/1999/xlink">
<g id="graph0" class="graph" transform="scale(0.944882 0.944882) rotate(0) translate(4 758)">
<title>G</title>
<polygon fill="white" stroke="none" points="-4,4 -4,-758 114,-758 114,4 -4,4"/>
<!-- 0 -->
<g id="node1" class="node"><title>0</title>
<ellipse fill="none" stroke="black" cx="47" cy="-734" rx="19.2474" ry="19.4965"/>
<text text-anchor="middle" x="47" y="-730.3" font-family="Times,serif" font-size="14.00">q0</text>
</g>
<!-- 0&#45;&gt;0 -->
<g id="edge1" class="edge"><title>0&#45;&gt;0</title>
<path fill="none" stroke="red" d="M64.8935,-741.855C74.8403,-743.322 84,-740.703 84,-734 84,-729.706 80.2409,-727.088 74.9238,-726.147"/>
<polygon fill="red" stroke="red" points="74.8942,-722.647 64.8935,-726.145 74.8929,-729.647 74.8942,-722.647"/>
<text text-anchor="middle" x="92" y="-737" font-family="NimbusMonL-Regu" font-size="10.00">b:1</text>
<text text-anchor="middle" x="92" y="-726" font-family="NimbusMonL-Regu" font-size="10.00">c:1</text>
</g>
<!-- 1 -->
<g id="node2" class="node"><title>1</title>
<ellipse fill="none" stroke="black" cx="47" cy="-646" rx="19.2474" ry="19.4965"/>
<text text-anchor="middle" x="47" y="-642.3" font-family="Times,serif" font-size="14.00">q1</text>
</g>
<!-- 0&#45;&gt;1 -->
<g id="edge2" class="edge"><title>0&#45;&gt;1</title>
<path fill="none" stroke="red" d="M47,-714.339C47,-703.07 47,-688.474 47,-675.754"/>
<polygon fill="red" stroke="red" points="50.5001,-675.624 47,-665.624 43.5001,-675.624 50.5001,-675.624"/>
<text text-anchor="middle" x="55" y="-687.5" font-family="NimbusMonL-Regu" font-size="10.00">a:0</text>
</g>
<!-- 2 -->
<g id="node3" class="node"><title>2</title>
<ellipse fill="none" stroke="black" cx="47" cy="-20" rx="19.2474" ry="19.4965"/>
<text text-anchor="middle" x="47" y="-16.3" font-family="Times,serif" font-size="14.00">q2</text>
</g>
<!-- 1&#45;&gt;2 -->
<g id="edge3" class="edge"><title>1&#45;&gt;2</title>
<path fill="none" stroke="red" d="M33.9079,-631.347C20.001,-615.355 0,-587.415 0,-559 0,-559 0,-559 0,-107 0,-82.8031 14.5039,-58.9505 27.3975,-42.5267"/>
<polygon fill="red" stroke="red" points="30.233,-44.5899 33.9079,-34.6528 24.8382,-40.1293 30.233,-44.5899"/>
<text text-anchor="middle" x="7.5" y="-330.5" font-family="NimbusMonL-Regu" font-size="10.00">c:1</text>
</g>
<!-- 3 -->
<g id="node4" class="node"><title>3</title>
<ellipse fill="none" stroke="black" cx="47" cy="-558" rx="19.2474" ry="19.4965"/>
<text text-anchor="middle" x="47" y="-554.3" font-family="Times,serif" font-size="14.00">q3</text>
</g>
<!-- 1&#45;&gt;3 -->
<g id="edge4" class="edge"><title>1&#45;&gt;3</title>
<path fill="none" stroke="red" d="M47,-626.339C47,-615.07 47,-600.474 47,-587.754"/>
<polygon fill="red" stroke="red" points="50.5001,-587.624 47,-577.624 43.5001,-587.624 50.5001,-587.624"/>
<text text-anchor="middle" x="55" y="-599.5" font-family="NimbusMonL-Regu" font-size="10.00">a:1</text>
</g>
<!-- 2&#45;&gt;1 -->
<g id="edge5" class="edge"><title>2&#45;&gt;1</title>
<path fill="none" stroke="red" d="M60.0921,-34.6528C73.999,-50.6454 94,-78.5853 94,-107 94,-559 94,-559 94,-559 94,-583.197 79.4961,-607.049 66.6025,-623.473"/>
<polygon fill="red" stroke="red" points="63.767,-621.41 60.0921,-631.347 69.1618,-625.871 63.767,-621.41"/>
<text text-anchor="middle" x="102" y="-336" font-family="NimbusMonL-Regu" font-size="10.00">a:0</text>
<text text-anchor="middle" x="102" y="-325" font-family="NimbusMonL-Regu" font-size="10.00">b:0</text>
</g>
<!-- 4 -->
<g id="node5" class="node"><title>4</title>
<ellipse fill="none" stroke="black" cx="47" cy="-470" rx="19.2474" ry="19.4965"/>
<text text-anchor="middle" x="47" y="-466.3" font-family="Times,serif" font-size="14.00">q4</text>
</g>
<!-- 3&#45;&gt;4 -->
<g id="edge6" class="edge"><title>3&#45;&gt;4</title>
<path fill="none" stroke="red" d="M47,-538.339C47,-527.07 47,-512.474 47,-499.754"/>
<polygon fill="red" stroke="red" points="50.5001,-499.624 47,-489.624 43.5001,-499.624 50.5001,-499.624"/>
<text text-anchor="middle" x="55" y="-511.5" font-family="NimbusMonL-Regu" font-size="10.00">a:0</text>
</g>
<!-- 5 -->
<g id="node6" class="node"><title>5</title>
<ellipse fill="none" stroke="black" cx="47" cy="-382" rx="19.2474" ry="19.4965"/>
<text text-anchor="middle" x="47" y="-378.3" font-family="Times,serif" font-size="14.00">q5</text>
</g>
<!-- 4&#45;&gt;5 -->
<g id="edge7" class="edge"><title>4&#45;&gt;5</title>
<path fill="none" stroke="red" d="M47,-450.339C47,-439.07 47,-424.474 47,-411.754"/>
<polygon fill="red" stroke="red" points="50.5001,-411.624 47,-401.624 43.5001,-411.624 50.5001,-411.624"/>
<text text-anchor="middle" x="54.5" y="-423.5" font-family="NimbusMonL-Regu" font-size="10.00">c:1</text>
</g>
<!-- 6 -->
<g id="node7" class="node"><title>6</title>
<ellipse fill="none" stroke="black" cx="47" cy="-284" rx="19.2474" ry="19.4965"/>
<text text-anchor="middle" x="47" y="-280.3" font-family="Times,serif" font-size="14.00">q6</text>
</g>
<!-- 5&#45;&gt;6 -->
<g id="edge8" class="edge"><title>5&#45;&gt;6</title>
<path fill="none" stroke="red" d="M47,-362.49C47,-348.767 47,-329.792 47,-314.055"/>
<polygon fill="red" stroke="red" points="50.5001,-313.78 47,-303.78 43.5001,-313.781 50.5001,-313.78"/>
<text text-anchor="middle" x="55" y="-330.5" font-family="NimbusMonL-Regu" font-size="10.00">a:0</text>
</g>
<!-- 7 -->
<g id="node8" class="node"><title>7</title>
<ellipse fill="none" stroke="black" cx="47" cy="-196" rx="19.2474" ry="19.4965"/>
<text text-anchor="middle" x="47" y="-192.3" font-family="Times,serif" font-size="14.00">q7</text>
</g>
<!-- 6&#45;&gt;7 -->
<g id="edge9" class="edge"><title>6&#45;&gt;7</title>
<path fill="none" stroke="red" d="M47,-264.339C47,-253.07 47,-238.474 47,-225.754"/>
<polygon fill="red" stroke="red" points="50.5001,-225.624 47,-215.624 43.5001,-225.624 50.5001,-225.624"/>
<text text-anchor="middle" x="55" y="-237.5" font-family="NimbusMonL-Regu" font-size="10.00">b:0</text>
</g>
<!-- 8 -->
<g id="node9" class="node"><title>8</title>
<ellipse fill="none" stroke="black" cx="47" cy="-108" rx="19.2474" ry="19.4965"/>
<text text-anchor="middle" x="47" y="-104.3" font-family="Times,serif" font-size="14.00">q8</text>
</g>
<!-- 7&#45;&gt;8 -->
<g id="edge10" class="edge"><title>7&#45;&gt;8</title>
<path fill="none" stroke="red" d="M47,-176.339C47,-165.07 47,-150.474 47,-137.754"/>
<polygon fill="red" stroke="red" points="50.5001,-137.624 47,-127.624 43.5001,-137.624 50.5001,-137.624"/>
<text text-anchor="middle" x="54.5" y="-149.5" font-family="NimbusMonL-Regu" font-size="10.00">c:0</text>
</g>
<!-- 8&#45;&gt;2 -->
<g id="edge11" class="edge"><title>8&#45;&gt;2</title>
<path fill="none" stroke="red" d="M47,-88.3393C47,-77.0697 47,-62.4743 47,-49.7541"/>
<polygon fill="red" stroke="red" points="50.5001,-49.6243 47,-39.6243 43.5001,-49.6243 50.5001,-49.6243"/>
<text text-anchor="middle" x="55" y="-61.5" font-family="NimbusMonL-Regu" font-size="10.00">b:0</text>
</g>
</g>
</svg>
