<?xml version="1.0" encoding="UTF-8" standalone="no"?>
<!DOCTYPE svg PUBLIC "-//W3C//DTD SVG 1.1//EN"
 "http://www.w3.org/Graphics/SVG/1.1/DTD/svg11.dtd">
<!-- Generated by graphviz version 2.36.0 (20140111.2315)
 -->
<!-- Title: G Pages: 1 -->
<svg width="1208pt" height="336pt"
 viewBox="0.00 0.00 1208.00 336.00" xmlns="http://www.w3.org/2000/svg" xmlns:xlink="http://www.w3.org/1999/xlink">
<g id="graph0" class="graph" transform="scale(1 1) rotate(0) translate(4 332)">
<title>G</title>
<polygon fill="white" stroke="none" points="-4,4 -4,-332 1204,-332 1204,4 -4,4"/>
<!-- 0 -->
<g id="node1" class="node"><title>0</title>
<ellipse fill="none" stroke="black" cx="384" cy="-308" rx="19.2474" ry="19.4965"/>
<text text-anchor="middle" x="384" y="-304.3" font-family="Times,serif" font-size="14.00">q0</text>
</g>
<!-- 1 -->
<g id="node2" class="node"><title>1</title>
<ellipse fill="none" stroke="black" cx="119" cy="-216" rx="19.2474" ry="19.4965"/>
<text text-anchor="middle" x="119" y="-212.3" font-family="Times,serif" font-size="14.00">q1</text>
</g>
<!-- 0&#45;&gt;1 -->
<g id="edge1" class="edge"><title>0&#45;&gt;1</title>
<path fill="none" stroke="red" d="M365.785,-300.814C320.195,-285.331 200.941,-244.829 146.643,-226.388"/>
<polygon fill="red" stroke="red" points="147.586,-223.012 136.992,-223.11 145.335,-229.64 147.586,-223.012"/>
<text text-anchor="middle" x="276" y="-261.5" font-family="NimbusMonL-Regu" font-size="10.00">a:0</text>
</g>
<!-- 7 -->
<g id="node8" class="node"><title>7</title>
<ellipse fill="none" stroke="black" cx="384" cy="-216" rx="19.2474" ry="19.4965"/>
<text text-anchor="middle" x="384" y="-212.3" font-family="Times,serif" font-size="14.00">q7</text>
</g>
<!-- 0&#45;&gt;7 -->
<g id="edge2" class="edge"><title>0&#45;&gt;7</title>
<path fill="none" stroke="red" d="M384,-288.352C384,-276.043 384,-259.673 384,-245.718"/>
<polygon fill="red" stroke="red" points="387.5,-245.624 384,-235.624 380.5,-245.624 387.5,-245.624"/>
<text text-anchor="middle" x="392" y="-261.5" font-family="NimbusMonL-Regu" font-size="10.00">b:1</text>
</g>
<!-- 19 -->
<g id="node20" class="node"><title>19</title>
<ellipse fill="none" stroke="black" cx="829" cy="-216" rx="24.0718" ry="24.0958"/>
<text text-anchor="middle" x="829" y="-212.3" font-family="Times,serif" font-size="14.00">q19</text>
</g>
<!-- 0&#45;&gt;19 -->
<g id="edge3" class="edge"><title>0&#45;&gt;19</title>
<path fill="none" stroke="red" d="M402.837,-303.19C471.272,-289.35 707.329,-241.608 795.463,-223.783"/>
<polygon fill="red" stroke="red" points="796.349,-227.175 805.457,-221.762 794.961,-220.313 796.349,-227.175"/>
<text text-anchor="middle" x="627.5" y="-261.5" font-family="NimbusMonL-Regu" font-size="10.00">c:1</text>
</g>
<!-- 2 -->
<g id="node3" class="node"><title>2</title>
<ellipse fill="none" stroke="black" cx="34" cy="-120" rx="19.2474" ry="19.4965"/>
<text text-anchor="middle" x="34" y="-116.3" font-family="Times,serif" font-size="14.00">q2</text>
</g>
<!-- 1&#45;&gt;2 -->
<g id="edge4" class="edge"><title>1&#45;&gt;2</title>
<path fill="none" stroke="red" d="M106.458,-201.13C92.5217,-185.718 69.8412,-160.636 53.5661,-142.638"/>
<polygon fill="red" stroke="red" points="55.8966,-139.997 46.5935,-134.927 50.7046,-144.692 55.8966,-139.997"/>
<text text-anchor="middle" x="90" y="-165.5" font-family="NimbusMonL-Regu" font-size="10.00">a:1</text>
</g>
<!-- 4 -->
<g id="node5" class="node"><title>4</title>
<ellipse fill="none" stroke="black" cx="119" cy="-120" rx="19.2474" ry="19.4965"/>
<text text-anchor="middle" x="119" y="-116.3" font-family="Times,serif" font-size="14.00">q4</text>
</g>
<!-- 1&#45;&gt;4 -->
<g id="edge5" class="edge"><title>1&#45;&gt;4</title>
<path fill="none" stroke="red" d="M119,-196.429C119,-183.168 119,-165.071 119,-149.927"/>
<polygon fill="red" stroke="red" points="122.5,-149.533 119,-139.533 115.5,-149.533 122.5,-149.533"/>
<text text-anchor="middle" x="126.5" y="-165.5" font-family="NimbusMonL-Regu" font-size="10.00">c:1</text>
</g>
<!-- 3 -->
<g id="node4" class="node"><title>3</title>
<ellipse fill="none" stroke="black" cx="19" cy="-24" rx="19.2474" ry="19.4965"/>
<text text-anchor="middle" x="19" y="-20.3" font-family="Times,serif" font-size="14.00">q3</text>
</g>
<!-- 2&#45;&gt;3 -->
<g id="edge6" class="edge"><title>2&#45;&gt;3</title>
<path fill="none" stroke="red" d="M31.0365,-100.429C28.8998,-87.039 25.9764,-68.7187 23.5457,-53.4864"/>
<polygon fill="red" stroke="red" points="26.9895,-52.8563 21.9574,-43.5328 20.077,-53.9594 26.9895,-52.8563"/>
<text text-anchor="middle" x="36" y="-69.5" font-family="NimbusMonL-Regu" font-size="10.00">a:0</text>
</g>
<!-- 5 -->
<g id="node6" class="node"><title>5</title>
<ellipse fill="none" stroke="black" cx="76" cy="-24" rx="19.2474" ry="19.4965"/>
<text text-anchor="middle" x="76" y="-20.3" font-family="Times,serif" font-size="14.00">q5</text>
</g>
<!-- 4&#45;&gt;5 -->
<g id="edge7" class="edge"><title>4&#45;&gt;5</title>
<path fill="none" stroke="red" d="M111.113,-101.759C104.688,-87.7134 95.5076,-67.6445 88.1452,-51.5499"/>
<polygon fill="red" stroke="red" points="91.1796,-49.7695 83.8369,-42.1317 84.814,-52.6814 91.1796,-49.7695"/>
<text text-anchor="middle" x="109" y="-69.5" font-family="NimbusMonL-Regu" font-size="10.00">a:0</text>
</g>
<!-- 6 -->
<g id="node7" class="node"><title>6</title>
<ellipse fill="none" stroke="black" cx="133" cy="-24" rx="19.2474" ry="19.4965"/>
<text text-anchor="middle" x="133" y="-20.3" font-family="Times,serif" font-size="14.00">q6</text>
</g>
<!-- 4&#45;&gt;6 -->
<g id="edge8" class="edge"><title>4&#45;&gt;6</title>
<path fill="none" stroke="red" d="M121.766,-100.429C123.76,-87.039 126.489,-68.7187 128.757,-53.4864"/>
<polygon fill="red" stroke="red" points="132.228,-53.9393 130.24,-43.5328 125.305,-52.9081 132.228,-53.9393"/>
<text text-anchor="middle" x="135" y="-69.5" font-family="NimbusMonL-Regu" font-size="10.00">b:0</text>
</g>
<!-- 8 -->
<g id="node9" class="node"><title>8</title>
<ellipse fill="none" stroke="black" cx="252" cy="-120" rx="19.2474" ry="19.4965"/>
<text text-anchor="middle" x="252" y="-116.3" font-family="Times,serif" font-size="14.00">q8</text>
</g>
<!-- 7&#45;&gt;8 -->
<g id="edge9" class="edge"><title>7&#45;&gt;8</title>
<path fill="none" stroke="red" d="M368.6,-204.033C345.748,-187.76 302.67,-157.084 275.757,-137.918"/>
<polygon fill="red" stroke="red" points="277.478,-134.847 267.302,-131.897 273.418,-140.549 277.478,-134.847"/>
<text text-anchor="middle" x="334" y="-165.5" font-family="NimbusMonL-Regu" font-size="10.00">a:0</text>
</g>
<!-- 11 -->
<g id="node12" class="node"><title>11</title>
<ellipse fill="none" stroke="black" cx="384" cy="-120" rx="24.0718" ry="24.0958"/>
<text text-anchor="middle" x="384" y="-116.3" font-family="Times,serif" font-size="14.00">q11</text>
</g>
<!-- 7&#45;&gt;11 -->
<g id="edge10" class="edge"><title>7&#45;&gt;11</title>
<path fill="none" stroke="red" d="M384,-196.429C384,-184.49 384,-168.632 384,-154.538"/>
<polygon fill="red" stroke="red" points="387.5,-154.198 384,-144.198 380.5,-154.198 387.5,-154.198"/>
<text text-anchor="middle" x="392" y="-165.5" font-family="NimbusMonL-Regu" font-size="10.00">b:1</text>
</g>
<!-- 15 -->
<g id="node16" class="node"><title>15</title>
<ellipse fill="none" stroke="black" cx="549" cy="-120" rx="24.0718" ry="24.0958"/>
<text text-anchor="middle" x="549" y="-116.3" font-family="Times,serif" font-size="14.00">q15</text>
</g>
<!-- 7&#45;&gt;15 -->
<g id="edge11" class="edge"><title>7&#45;&gt;15</title>
<path fill="none" stroke="red" d="M400.424,-205.643C428.26,-189.785 485.057,-157.428 519.801,-137.635"/>
<polygon fill="red" stroke="red" points="521.594,-140.641 528.55,-132.65 518.129,-134.559 521.594,-140.641"/>
<text text-anchor="middle" x="484.5" y="-165.5" font-family="NimbusMonL-Regu" font-size="10.00">c:1</text>
</g>
<!-- 9 -->
<g id="node10" class="node"><title>9</title>
<ellipse fill="none" stroke="black" cx="190" cy="-24" rx="19.2474" ry="19.4965"/>
<text text-anchor="middle" x="190" y="-20.3" font-family="Times,serif" font-size="14.00">q9</text>
</g>
<!-- 8&#45;&gt;9 -->
<g id="edge12" class="edge"><title>8&#45;&gt;9</title>
<path fill="none" stroke="red" d="M241.762,-103.478C231.98,-88.6464 217.092,-66.0753 205.79,-48.9404"/>
<polygon fill="red" stroke="red" points="208.681,-46.9659 200.253,-40.5452 202.838,-50.8201 208.681,-46.9659"/>
<text text-anchor="middle" x="233" y="-69.5" font-family="NimbusMonL-Regu" font-size="10.00">a:1</text>
</g>
<!-- 10 -->
<g id="node11" class="node"><title>10</title>
<ellipse fill="none" stroke="black" cx="252" cy="-24" rx="24.0718" ry="24.0958"/>
<text text-anchor="middle" x="252" y="-20.3" font-family="Times,serif" font-size="14.00">q10</text>
</g>
<!-- 8&#45;&gt;10 -->
<g id="edge13" class="edge"><title>8&#45;&gt;10</title>
<path fill="none" stroke="red" d="M252,-100.429C252,-88.4904 252,-72.6323 252,-58.5382"/>
<polygon fill="red" stroke="red" points="255.5,-58.1982 252,-48.1983 248.5,-58.1983 255.5,-58.1982"/>
<text text-anchor="middle" x="259.5" y="-69.5" font-family="NimbusMonL-Regu" font-size="10.00">c:1</text>
</g>
<!-- 12 -->
<g id="node13" class="node"><title>12</title>
<ellipse fill="none" stroke="black" cx="318" cy="-24" rx="24.0718" ry="24.0958"/>
<text text-anchor="middle" x="318" y="-20.3" font-family="Times,serif" font-size="14.00">q12</text>
</g>
<!-- 11&#45;&gt;12 -->
<g id="edge14" class="edge"><title>11&#45;&gt;12</title>
<path fill="none" stroke="red" d="M370.644,-99.9777C361.135,-86.4344 348.204,-68.0182 337.538,-52.8271"/>
<polygon fill="red" stroke="red" points="340.174,-50.4896 331.563,-44.3166 334.445,-54.512 340.174,-50.4896"/>
<text text-anchor="middle" x="363" y="-69.5" font-family="NimbusMonL-Regu" font-size="10.00">a:0</text>
</g>
<!-- 13 -->
<g id="node14" class="node"><title>13</title>
<ellipse fill="none" stroke="black" cx="384" cy="-24" rx="24.0718" ry="24.0958"/>
<text text-anchor="middle" x="384" y="-20.3" font-family="Times,serif" font-size="14.00">q13</text>
</g>
<!-- 11&#45;&gt;13 -->
<g id="edge15" class="edge"><title>11&#45;&gt;13</title>
<path fill="none" stroke="red" d="M384,-95.764C384,-84.5788 384,-70.9568 384,-58.6623"/>
<polygon fill="red" stroke="red" points="387.5,-58.2944 384,-48.2944 380.5,-58.2945 387.5,-58.2944"/>
<text text-anchor="middle" x="392" y="-69.5" font-family="NimbusMonL-Regu" font-size="10.00">b:1</text>
</g>
<!-- 14 -->
<g id="node15" class="node"><title>14</title>
<ellipse fill="none" stroke="black" cx="450" cy="-24" rx="24.0718" ry="24.0958"/>
<text text-anchor="middle" x="450" y="-20.3" font-family="Times,serif" font-size="14.00">q14</text>
</g>
<!-- 11&#45;&gt;14 -->
<g id="edge16" class="edge"><title>11&#45;&gt;14</title>
<path fill="none" stroke="red" d="M397.356,-99.9777C406.865,-86.4344 419.796,-68.0182 430.462,-52.8271"/>
<polygon fill="red" stroke="red" points="433.555,-54.512 436.437,-44.3166 427.826,-50.4896 433.555,-54.512"/>
<text text-anchor="middle" x="428.5" y="-69.5" font-family="NimbusMonL-Regu" font-size="10.00">c:1</text>
</g>
<!-- 16 -->
<g id="node17" class="node"><title>16</title>
<ellipse fill="none" stroke="black" cx="516" cy="-24" rx="24.0718" ry="24.0958"/>
<text text-anchor="middle" x="516" y="-20.3" font-family="Times,serif" font-size="14.00">q16</text>
</g>
<!-- 15&#45;&gt;16 -->
<g id="edge17" class="edge"><title>15&#45;&gt;16</title>
<path fill="none" stroke="red" d="M541.346,-97.1982C537.128,-85.1834 531.815,-70.0494 527.144,-56.7448"/>
<polygon fill="red" stroke="red" points="530.342,-55.2852 523.727,-47.0091 523.737,-57.604 530.342,-55.2852"/>
<text text-anchor="middle" x="543" y="-69.5" font-family="NimbusMonL-Regu" font-size="10.00">a:0</text>
</g>
<!-- 17 -->
<g id="node18" class="node"><title>17</title>
<ellipse fill="none" stroke="black" cx="582" cy="-24" rx="24.0718" ry="24.0958"/>
<text text-anchor="middle" x="582" y="-20.3" font-family="Times,serif" font-size="14.00">q17</text>
</g>
<!-- 15&#45;&gt;17 -->
<g id="edge18" class="edge"><title>15&#45;&gt;17</title>
<path fill="none" stroke="red" d="M556.654,-97.1982C560.872,-85.1834 566.185,-70.0494 570.856,-56.7448"/>
<polygon fill="red" stroke="red" points="574.263,-57.604 574.273,-47.0091 567.658,-55.2852 574.263,-57.604"/>
<text text-anchor="middle" x="576" y="-69.5" font-family="NimbusMonL-Regu" font-size="10.00">b:1</text>
</g>
<!-- 18 -->
<g id="node19" class="node"><title>18</title>
<ellipse fill="none" stroke="black" cx="648" cy="-24" rx="24.0718" ry="24.0958"/>
<text text-anchor="middle" x="648" y="-20.3" font-family="Times,serif" font-size="14.00">q18</text>
</g>
<!-- 15&#45;&gt;18 -->
<g id="edge19" class="edge"><title>15&#45;&gt;18</title>
<path fill="none" stroke="red" d="M566.244,-102.626C582.002,-87.6648 605.484,-65.3692 623.244,-48.5058"/>
<polygon fill="red" stroke="red" points="626.111,-50.6097 630.953,-41.1859 621.291,-45.5334 626.111,-50.6097"/>
<text text-anchor="middle" x="612.5" y="-69.5" font-family="NimbusMonL-Regu" font-size="10.00">c:1</text>
</g>
<!-- 20 -->
<g id="node21" class="node"><title>20</title>
<ellipse fill="none" stroke="black" cx="780" cy="-120" rx="24.0718" ry="24.0958"/>
<text text-anchor="middle" x="780" y="-116.3" font-family="Times,serif" font-size="14.00">q20</text>
</g>
<!-- 19&#45;&gt;20 -->
<g id="edge20" class="edge"><title>19&#45;&gt;20</title>
<path fill="none" stroke="red" d="M818.125,-194.138C811.464,-181.36 802.833,-164.802 795.468,-150.673"/>
<polygon fill="red" stroke="red" points="798.57,-149.053 790.844,-141.803 792.363,-152.289 798.57,-149.053"/>
<text text-anchor="middle" x="816" y="-165.5" font-family="NimbusMonL-Regu" font-size="10.00">a:0</text>
</g>
<!-- 23 -->
<g id="node24" class="node"><title>23</title>
<ellipse fill="none" stroke="black" cx="879" cy="-120" rx="24.0718" ry="24.0958"/>
<text text-anchor="middle" x="879" y="-116.3" font-family="Times,serif" font-size="14.00">q23</text>
</g>
<!-- 19&#45;&gt;23 -->
<g id="edge21" class="edge"><title>19&#45;&gt;23</title>
<path fill="none" stroke="red" d="M840.097,-194.138C846.941,-181.271 855.823,-164.572 863.373,-150.379"/>
<polygon fill="red" stroke="red" points="866.5,-151.952 868.106,-141.48 860.32,-148.665 866.5,-151.952"/>
<text text-anchor="middle" x="865" y="-165.5" font-family="NimbusMonL-Regu" font-size="10.00">b:1</text>
</g>
<!-- 27 -->
<g id="node28" class="node"><title>27</title>
<ellipse fill="none" stroke="black" cx="1077" cy="-120" rx="24.0718" ry="24.0958"/>
<text text-anchor="middle" x="1077" y="-116.3" font-family="Times,serif" font-size="14.00">q27</text>
</g>
<!-- 19&#45;&gt;27 -->
<g id="edge22" class="edge"><title>19&#45;&gt;27</title>
<path fill="none" stroke="red" d="M851.446,-206.492C895.711,-189.714 994.372,-152.319 1045.27,-133.026"/>
<polygon fill="red" stroke="red" points="1046.67,-136.238 1054.78,-129.421 1044.19,-129.692 1046.67,-136.238"/>
<text text-anchor="middle" x="975.5" y="-165.5" font-family="NimbusMonL-Regu" font-size="10.00">c:1</text>
</g>
<!-- 21 -->
<g id="node22" class="node"><title>21</title>
<ellipse fill="none" stroke="black" cx="714" cy="-24" rx="24.0718" ry="24.0958"/>
<text text-anchor="middle" x="714" y="-20.3" font-family="Times,serif" font-size="14.00">q21</text>
</g>
<!-- 20&#45;&gt;21 -->
<g id="edge23" class="edge"><title>20&#45;&gt;21</title>
<path fill="none" stroke="red" d="M766.644,-99.9777C757.135,-86.4344 744.204,-68.0182 733.538,-52.8271"/>
<polygon fill="red" stroke="red" points="736.174,-50.4896 727.563,-44.3166 730.445,-54.512 736.174,-50.4896"/>
<text text-anchor="middle" x="759" y="-69.5" font-family="NimbusMonL-Regu" font-size="10.00">a:1</text>
</g>
<!-- 22 -->
<g id="node23" class="node"><title>22</title>
<ellipse fill="none" stroke="black" cx="780" cy="-24" rx="24.0718" ry="24.0958"/>
<text text-anchor="middle" x="780" y="-20.3" font-family="Times,serif" font-size="14.00">q22</text>
</g>
<!-- 20&#45;&gt;22 -->
<g id="edge24" class="edge"><title>20&#45;&gt;22</title>
<path fill="none" stroke="red" d="M780,-95.764C780,-84.5788 780,-70.9568 780,-58.6623"/>
<polygon fill="red" stroke="red" points="783.5,-58.2944 780,-48.2944 776.5,-58.2945 783.5,-58.2944"/>
<text text-anchor="middle" x="787.5" y="-69.5" font-family="NimbusMonL-Regu" font-size="10.00">c:1</text>
</g>
<!-- 24 -->
<g id="node25" class="node"><title>24</title>
<ellipse fill="none" stroke="black" cx="846" cy="-24" rx="24.0718" ry="24.0958"/>
<text text-anchor="middle" x="846" y="-20.3" font-family="Times,serif" font-size="14.00">q24</text>
</g>
<!-- 23&#45;&gt;24 -->
<g id="edge25" class="edge"><title>23&#45;&gt;24</title>
<path fill="none" stroke="red" d="M871.346,-97.1982C867.128,-85.1834 861.815,-70.0494 857.144,-56.7448"/>
<polygon fill="red" stroke="red" points="860.342,-55.2852 853.727,-47.0091 853.737,-57.604 860.342,-55.2852"/>
<text text-anchor="middle" x="873" y="-69.5" font-family="NimbusMonL-Regu" font-size="10.00">a:0</text>
</g>
<!-- 25 -->
<g id="node26" class="node"><title>25</title>
<ellipse fill="none" stroke="black" cx="912" cy="-24" rx="24.0718" ry="24.0958"/>
<text text-anchor="middle" x="912" y="-20.3" font-family="Times,serif" font-size="14.00">q25</text>
</g>
<!-- 23&#45;&gt;25 -->
<g id="edge26" class="edge"><title>23&#45;&gt;25</title>
<path fill="none" stroke="red" d="M886.654,-97.1982C890.872,-85.1834 896.185,-70.0494 900.856,-56.7448"/>
<polygon fill="red" stroke="red" points="904.263,-57.604 904.273,-47.0091 897.658,-55.2852 904.263,-57.604"/>
<text text-anchor="middle" x="906" y="-69.5" font-family="NimbusMonL-Regu" font-size="10.00">b:1</text>
</g>
<!-- 26 -->
<g id="node27" class="node"><title>26</title>
<ellipse fill="none" stroke="black" cx="978" cy="-24" rx="24.0718" ry="24.0958"/>
<text text-anchor="middle" x="978" y="-20.3" font-family="Times,serif" font-size="14.00">q26</text>
</g>
<!-- 23&#45;&gt;26 -->
<g id="edge27" class="edge"><title>23&#45;&gt;26</title>
<path fill="none" stroke="red" d="M896.244,-102.626C912.002,-87.6648 935.484,-65.3692 953.244,-48.5058"/>
<polygon fill="red" stroke="red" points="956.111,-50.6097 960.953,-41.1859 951.291,-45.5334 956.111,-50.6097"/>
<text text-anchor="middle" x="942.5" y="-69.5" font-family="NimbusMonL-Regu" font-size="10.00">c:1</text>
</g>
<!-- 28 -->
<g id="node29" class="node"><title>28</title>
<ellipse fill="none" stroke="black" cx="1044" cy="-24" rx="24.0718" ry="24.0958"/>
<text text-anchor="middle" x="1044" y="-20.3" font-family="Times,serif" font-size="14.00">q28</text>
</g>
<!-- 27&#45;&gt;28 -->
<g id="edge28" class="edge"><title>27&#45;&gt;28</title>
<path fill="none" stroke="red" d="M1069.35,-97.1982C1065.13,-85.1834 1059.82,-70.0494 1055.14,-56.7448"/>
<polygon fill="red" stroke="red" points="1058.34,-55.2852 1051.73,-47.0091 1051.74,-57.604 1058.34,-55.2852"/>
<text text-anchor="middle" x="1071" y="-69.5" font-family="NimbusMonL-Regu" font-size="10.00">a:0</text>
</g>
<!-- 29 -->
<g id="node30" class="node"><title>29</title>
<ellipse fill="none" stroke="black" cx="1110" cy="-24" rx="24.0718" ry="24.0958"/>
<text text-anchor="middle" x="1110" y="-20.3" font-family="Times,serif" font-size="14.00">q29</text>
</g>
<!-- 27&#45;&gt;29 -->
<g id="edge29" class="edge"><title>27&#45;&gt;29</title>
<path fill="none" stroke="red" d="M1084.65,-97.1982C1088.87,-85.1834 1094.18,-70.0494 1098.86,-56.7448"/>
<polygon fill="red" stroke="red" points="1102.26,-57.604 1102.27,-47.0091 1095.66,-55.2852 1102.26,-57.604"/>
<text text-anchor="middle" x="1104" y="-69.5" font-family="NimbusMonL-Regu" font-size="10.00">b:1</text>
</g>
<!-- 30 -->
<g id="node31" class="node"><title>30</title>
<ellipse fill="none" stroke="black" cx="1176" cy="-24" rx="24.0718" ry="24.0958"/>
<text text-anchor="middle" x="1176" y="-20.3" font-family="Times,serif" font-size="14.00">q30</text>
</g>
<!-- 27&#45;&gt;30 -->
<g id="edge30" class="edge"><title>27&#45;&gt;30</title>
<path fill="none" stroke="red" d="M1094.24,-102.626C1110,-87.6648 1133.48,-65.3692 1151.24,-48.5058"/>
<polygon fill="red" stroke="red" points="1154.11,-50.6097 1158.95,-41.1859 1149.29,-45.5334 1154.11,-50.6097"/>
<text text-anchor="middle" x="1140.5" y="-69.5" font-family="NimbusMonL-Regu" font-size="10.00">c:1</text>
</g>
</g>
</svg>
