<?xml version="1.0" encoding="UTF-8" standalone="no"?>
<!DOCTYPE svg PUBLIC "-//W3C//DTD SVG 1.1//EN"
 "http://www.w3.org/Graphics/SVG/1.1/DTD/svg11.dtd">
<!-- Generated by graphviz version 2.36.0 (20140111.2315)
 -->
<!-- Title: G Pages: 1 -->
<svg width="125pt" height="276pt"
 viewBox="0.00 0.00 124.75 276.00" xmlns="http://www.w3.org/2000/svg" xmlns:xlink="http://www.w3.org/1999/xlink">
<g id="graph0" class="graph" transform="scale(1 1) rotate(0) translate(4 272)">
<title>G</title>
<polygon fill="white" stroke="none" points="-4,4 -4,-272 120.754,-272 120.754,4 -4,4"/>
<!-- 0 -->
<g id="node1" class="node"><title>0</title>
<ellipse fill="none" stroke="black" cx="57.7544" cy="-246" rx="19.2474" ry="19.4965"/>
<text text-anchor="middle" x="57.7544" y="-242.3" font-family="Times,serif" font-size="14.00">q0</text>
</g>
<!-- 0&#45;&gt;0 -->
<g id="edge1" class="edge"><title>0&#45;&gt;0</title>
<path fill="none" stroke="red" d="M75.2649,-254.151C85.3583,-255.815 94.7544,-253.098 94.7544,-246 94.7544,-241.453 90.8982,-238.704 85.473,-237.753"/>
<polygon fill="red" stroke="red" points="85.2315,-234.255 75.2649,-237.849 85.2975,-241.254 85.2315,-234.255"/>
<text text-anchor="middle" x="105.754" y="-260" font-family="NimbusMonL-Regu" font-size="10.00">b:19</text>
<text text-anchor="middle" x="105.754" y="-249" font-family="NimbusMonL-Regu" font-size="10.00">d:4</text>
<text text-anchor="middle" x="105.754" y="-238" font-family="NimbusMonL-Regu" font-size="10.00">e:14</text>
<text text-anchor="middle" x="105.754" y="-227" font-family="NimbusMonL-Regu" font-size="10.00">f:9</text>
</g>
<!-- 1 -->
<g id="node2" class="node"><title>1</title>
<ellipse fill="none" stroke="black" cx="57.7544" cy="-20" rx="19.2474" ry="19.4965"/>
<text text-anchor="middle" x="57.7544" y="-16.3" font-family="Times,serif" font-size="14.00">q1</text>
</g>
<!-- 0&#45;&gt;1 -->
<g id="edge2" class="edge"><title>0&#45;&gt;1</title>
<path fill="none" stroke="red" d="M44.0849,-231.689C31.8821,-218.773 14.8722,-197.953 7.75438,-176 -2.93763,-143.023 -2.09082,-131.239 7.75438,-98 13.8088,-77.5592 27.1851,-57.4591 38.5798,-42.9233"/>
<polygon fill="red" stroke="red" points="41.392,-45.0127 44.9896,-35.0473 35.9627,-40.5942 41.392,-45.0127"/>
<text text-anchor="middle" x="18.7544" y="-140" font-family="NimbusMonL-Regu" font-size="10.00">h:12</text>
<text text-anchor="middle" x="18.7544" y="-129" font-family="NimbusMonL-Regu" font-size="10.00">j:4</text>
</g>
<!-- 2 -->
<g id="node3" class="node"><title>2</title>
<ellipse fill="none" stroke="black" cx="57.7544" cy="-137" rx="19.2474" ry="19.4965"/>
<text text-anchor="middle" x="57.7544" y="-133.3" font-family="Times,serif" font-size="14.00">q2</text>
</g>
<!-- 0&#45;&gt;2 -->
<g id="edge3" class="edge"><title>0&#45;&gt;2</title>
<path fill="none" stroke="red" d="M57.7544,-226.362C57.7544,-209.969 57.7544,-185.841 57.7544,-166.938"/>
<polygon fill="red" stroke="red" points="61.2545,-166.783 57.7544,-156.783 54.2545,-166.783 61.2545,-166.783"/>
<text text-anchor="middle" x="65.2544" y="-197.5" font-family="NimbusMonL-Regu" font-size="10.00">c:8</text>
</g>
<!-- 1&#45;&gt;0 -->
<g id="edge4" class="edge"><title>1&#45;&gt;0</title>
<path fill="none" stroke="red" d="M68.5923,-36.1783C72.7032,-42.625 77.0425,-50.398 79.7544,-58 97.3983,-107.459 93.3798,-124.044 85.7544,-176 83.5403,-191.085 77.4236,-206.916 71.47,-219.603"/>
<polygon fill="red" stroke="red" points="68.3031,-218.111 67.0163,-228.628 74.5803,-221.209 68.3031,-218.111"/>
<text text-anchor="middle" x="102.754" y="-167.5" font-family="NimbusMonL-Regu" font-size="10.00">a:8</text>
<text text-anchor="middle" x="102.754" y="-156.5" font-family="NimbusMonL-Regu" font-size="10.00">b:2</text>
<text text-anchor="middle" x="102.754" y="-145.5" font-family="NimbusMonL-Regu" font-size="10.00">c:18</text>
<text text-anchor="middle" x="102.754" y="-134.5" font-family="NimbusMonL-Regu" font-size="10.00">e:13</text>
<text text-anchor="middle" x="102.754" y="-123.5" font-family="NimbusMonL-Regu" font-size="10.00">h:19</text>
<text text-anchor="middle" x="102.754" y="-112.5" font-family="NimbusMonL-Regu" font-size="10.00">i:4</text>
<text text-anchor="middle" x="102.754" y="-101.5" font-family="NimbusMonL-Regu" font-size="10.00">j:16</text>
</g>
<!-- 2&#45;&gt;1 -->
<g id="edge5" class="edge"><title>2&#45;&gt;1</title>
<path fill="none" stroke="red" d="M57.7544,-117.267C57.7544,-98.9731 57.7544,-70.879 57.7544,-49.7541"/>
<polygon fill="red" stroke="red" points="61.2545,-49.7246 57.7544,-39.7247 54.2545,-49.7247 61.2545,-49.7246"/>
<text text-anchor="middle" x="66.7544" y="-72" font-family="NimbusMonL-Regu" font-size="10.00">f:8</text>
<text text-anchor="middle" x="66.7544" y="-61" font-family="NimbusMonL-Regu" font-size="10.00">i:14</text>
</g>
</g>
</svg>
