<?xml version="1.0" encoding="UTF-8" standalone="no"?>
<!DOCTYPE svg PUBLIC "-//W3C//DTD SVG 1.1//EN"
 "http://www.w3.org/Graphics/SVG/1.1/DTD/svg11.dtd">
<!-- Generated by graphviz version 2.36.0 (20140111.2315)
 -->
<!-- Title: G Pages: 1 -->
<svg width="86pt" height="503pt"
 viewBox="0.00 0.00 86.00 502.50" xmlns="http://www.w3.org/2000/svg" xmlns:xlink="http://www.w3.org/1999/xlink">
<g id="graph0" class="graph" transform="scale(1 1) rotate(0) translate(4 498.5)">
<title>G</title>
<polygon fill="white" stroke="none" points="-4,4 -4,-498.5 82,-498.5 82,4 -4,4"/>
<!-- 0 -->
<g id="node1" class="node"><title>0</title>
<ellipse fill="none" stroke="black" cx="19" cy="-474.5" rx="19.2474" ry="19.4965"/>
<text text-anchor="middle" x="19" y="-470.8" font-family="Times,serif" font-size="14.00">q0</text>
</g>
<!-- 1 -->
<g id="node2" class="node"><title>1</title>
<ellipse fill="none" stroke="black" cx="19" cy="-386.5" rx="19.2474" ry="19.4965"/>
<text text-anchor="middle" x="19" y="-382.8" font-family="Times,serif" font-size="14.00">q1</text>
</g>
<!-- 0&#45;&gt;1 -->
<g id="edge1" class="edge"><title>0&#45;&gt;1</title>
<path fill="none" stroke="red" d="M19,-454.839C19,-443.57 19,-428.974 19,-416.254"/>
<polygon fill="red" stroke="red" points="22.5001,-416.124 19,-406.124 15.5001,-416.124 22.5001,-416.124"/>
<text text-anchor="middle" x="27" y="-428" font-family="NimbusMonL-Regu" font-size="10.00">b:2</text>
</g>
<!-- 2 -->
<g id="node3" class="node"><title>2</title>
<ellipse fill="none" stroke="black" cx="19" cy="-298.5" rx="19.2474" ry="19.4965"/>
<text text-anchor="middle" x="19" y="-294.8" font-family="Times,serif" font-size="14.00">q2</text>
</g>
<!-- 1&#45;&gt;2 -->
<g id="edge2" class="edge"><title>1&#45;&gt;2</title>
<path fill="none" stroke="red" d="M19,-366.839C19,-355.57 19,-340.974 19,-328.254"/>
<polygon fill="red" stroke="red" points="22.5001,-328.124 19,-318.124 15.5001,-328.124 22.5001,-328.124"/>
<text text-anchor="middle" x="25" y="-340" font-family="NimbusMonL-Regu" font-size="10.00">j:4</text>
</g>
<!-- 2&#45;&gt;2 -->
<g id="edge3" class="edge"><title>2&#45;&gt;2</title>
<path fill="none" stroke="red" d="M36.8935,-306.355C46.8403,-307.822 56,-305.203 56,-298.5 56,-294.206 52.2409,-291.588 46.9238,-290.647"/>
<polygon fill="red" stroke="red" points="46.8942,-287.147 36.8935,-290.645 46.8929,-294.147 46.8942,-287.147"/>
<text text-anchor="middle" x="65" y="-307" font-family="NimbusMonL-Regu" font-size="10.00">d:4</text>
<text text-anchor="middle" x="65" y="-296" font-family="NimbusMonL-Regu" font-size="10.00">f:9</text>
<text text-anchor="middle" x="65" y="-285" font-family="NimbusMonL-Regu" font-size="10.00">j:16</text>
</g>
<!-- 3 -->
<g id="node4" class="node"><title>3</title>
<ellipse fill="none" stroke="black" cx="19" cy="-210.5" rx="19.2474" ry="19.4965"/>
<text text-anchor="middle" x="19" y="-206.8" font-family="Times,serif" font-size="14.00">q3</text>
</g>
<!-- 2&#45;&gt;3 -->
<g id="edge4" class="edge"><title>2&#45;&gt;3</title>
<path fill="none" stroke="red" d="M19,-278.839C19,-267.57 19,-252.974 19,-240.254"/>
<polygon fill="red" stroke="red" points="22.5001,-240.124 19,-230.124 15.5001,-240.124 22.5001,-240.124"/>
<text text-anchor="middle" x="25" y="-252" font-family="NimbusMonL-Regu" font-size="10.00">i:4</text>
</g>
<!-- 3&#45;&gt;3 -->
<g id="edge5" class="edge"><title>3&#45;&gt;3</title>
<path fill="none" stroke="red" d="M36.8935,-218.355C46.8403,-219.822 56,-217.203 56,-210.5 56,-206.206 52.2409,-203.588 46.9238,-202.647"/>
<polygon fill="red" stroke="red" points="46.8942,-199.147 36.8935,-202.645 46.8929,-206.147 46.8942,-199.147"/>
<text text-anchor="middle" x="67" y="-213.5" font-family="NimbusMonL-Regu" font-size="10.00">b:19</text>
<text text-anchor="middle" x="67" y="-202.5" font-family="NimbusMonL-Regu" font-size="10.00">e:14</text>
</g>
<!-- 4 -->
<g id="node5" class="node"><title>4</title>
<ellipse fill="none" stroke="black" cx="19" cy="-122.5" rx="19.2474" ry="19.4965"/>
<text text-anchor="middle" x="19" y="-118.8" font-family="Times,serif" font-size="14.00">q4</text>
</g>
<!-- 3&#45;&gt;4 -->
<g id="edge6" class="edge"><title>3&#45;&gt;4</title>
<path fill="none" stroke="red" d="M19,-190.839C19,-179.57 19,-164.974 19,-152.254"/>
<polygon fill="red" stroke="red" points="22.5001,-152.124 19,-142.124 15.5001,-152.124 22.5001,-152.124"/>
<text text-anchor="middle" x="30" y="-164" font-family="NimbusMonL-Regu" font-size="10.00">h:12</text>
</g>
<!-- 4&#45;&gt;4 -->
<g id="edge7" class="edge"><title>4&#45;&gt;4</title>
<path fill="none" stroke="red" d="M36.8935,-130.355C46.8403,-131.822 56,-129.203 56,-122.5 56,-118.206 52.2409,-115.588 46.9238,-114.647"/>
<polygon fill="red" stroke="red" points="46.8942,-111.147 36.8935,-114.645 46.8929,-118.147 46.8942,-111.147"/>
<text text-anchor="middle" x="67" y="-120" font-family="NimbusMonL-Regu" font-size="10.00">h:19</text>
</g>
<!-- 5 -->
<g id="node6" class="node"><title>5</title>
<ellipse fill="none" stroke="black" cx="19" cy="-27.5" rx="19.2474" ry="19.4965"/>
<text text-anchor="middle" x="19" y="-23.8" font-family="Times,serif" font-size="14.00">q5</text>
</g>
<!-- 4&#45;&gt;5 -->
<g id="edge8" class="edge"><title>4&#45;&gt;5</title>
<path fill="none" stroke="red" d="M19,-102.68C19,-89.6964 19,-72.1859 19,-57.4381"/>
<polygon fill="red" stroke="red" points="22.5001,-57.2919 19,-47.2919 15.5001,-57.292 22.5001,-57.2919"/>
<text text-anchor="middle" x="26.5" y="-76" font-family="NimbusMonL-Regu" font-size="10.00">c:8</text>
</g>
<!-- 5&#45;&gt;5 -->
<g id="edge9" class="edge"><title>5&#45;&gt;5</title>
<path fill="none" stroke="red" d="M36.5106,-36.36C46.604,-38.1682 56,-35.2148 56,-27.5 56,-22.5577 52.1439,-19.5695 46.7186,-18.5354"/>
<polygon fill="red" stroke="red" points="46.4742,-15.0376 36.5106,-18.64 46.5459,-22.0373 46.4742,-15.0376"/>
<text text-anchor="middle" x="67" y="-47" font-family="NimbusMonL-Regu" font-size="10.00">a:8</text>
<text text-anchor="middle" x="67" y="-36" font-family="NimbusMonL-Regu" font-size="10.00">c:18</text>
<text text-anchor="middle" x="67" y="-25" font-family="NimbusMonL-Regu" font-size="10.00">e:13</text>
<text text-anchor="middle" x="67" y="-14" font-family="NimbusMonL-Regu" font-size="10.00">f:8</text>
<text text-anchor="middle" x="67" y="-3" font-family="NimbusMonL-Regu" font-size="10.00">i:14</text>
</g>
</g>
</svg>
