<?xml version="1.0" encoding="UTF-8" standalone="no"?>
<!DOCTYPE svg PUBLIC "-//W3C//DTD SVG 1.1//EN"
 "http://www.w3.org/Graphics/SVG/1.1/DTD/svg11.dtd">
<!-- Generated by graphviz version 2.36.0 (20140111.2315)
 -->
<!-- Title: G Pages: 1 -->
<svg width="153pt" height="172pt"
 viewBox="0.00 0.00 152.82 172.00" xmlns="http://www.w3.org/2000/svg" xmlns:xlink="http://www.w3.org/1999/xlink">
<g id="graph0" class="graph" transform="scale(1 1) rotate(0) translate(4 168)">
<title>G</title>
<polygon fill="white" stroke="none" points="-4,4 -4,-168 148.816,-168 148.816,4 -4,4"/>
<!-- 0 -->
<g id="node1" class="node"><title>0</title>
<ellipse fill="none" stroke="black" cx="45.8164" cy="-142" rx="19.2474" ry="19.4965"/>
<text text-anchor="middle" x="45.8164" y="-138.3" font-family="Times,serif" font-size="14.00">q0</text>
</g>
<!-- 0&#45;&gt;0 -->
<g id="edge1" class="edge"><title>0&#45;&gt;0</title>
<path fill="none" stroke="red" d="M64.4734,-147.608C74.1204,-148.471 82.8164,-146.602 82.8164,-142 82.8164,-139.124 79.4195,-137.315 74.5167,-136.574"/>
<polygon fill="red" stroke="red" points="74.5352,-133.074 64.4734,-136.392 74.4083,-140.073 74.5352,-133.074"/>
<text text-anchor="middle" x="93.8164" y="-145" font-family="NimbusMonL-Regu" font-size="10.00">a:8</text>
<text text-anchor="middle" x="93.8164" y="-134" font-family="NimbusMonL-Regu" font-size="10.00">e:13</text>
</g>
<!-- 0&#45;&gt;0 -->
<g id="edge2" class="edge"><title>0&#45;&gt;0</title>
<path fill="none" stroke="red" d="M63.0694,-150.809C82.1791,-156.501 104.816,-153.564 104.816,-142 104.816,-132.423 89.2919,-128.763 73.1026,-131.021"/>
<polygon fill="red" stroke="red" points="72.1034,-127.656 63.0694,-133.191 73.5833,-134.498 72.1034,-127.656"/>
<text text-anchor="middle" x="115.816" y="-156" font-family="NimbusMonL-Regu" font-size="10.00">b:2</text>
<text text-anchor="middle" x="115.816" y="-145" font-family="NimbusMonL-Regu" font-size="10.00">c:8</text>
<text text-anchor="middle" x="115.816" y="-134" font-family="NimbusMonL-Regu" font-size="10.00">f:8</text>
<text text-anchor="middle" x="115.816" y="-123" font-family="NimbusMonL-Regu" font-size="10.00">h:19</text>
</g>
<!-- 1 -->
<g id="node2" class="node"><title>1</title>
<ellipse fill="none" stroke="black" cx="45.8164" cy="-20" rx="19.2474" ry="19.4965"/>
<text text-anchor="middle" x="45.8164" y="-16.3" font-family="Times,serif" font-size="14.00">q1</text>
</g>
<!-- 0&#45;&gt;1 -->
<g id="edge3" class="edge"><title>0&#45;&gt;1</title>
<path fill="none" stroke="red" d="M29.8453,-130.4C20.9535,-123.494 10.7151,-113.618 5.81641,-102 -1.78137,-83.9807 -2.01752,-75.9179 5.81641,-58 9.22703,-50.1992 15.1834,-43.3102 21.474,-37.6562"/>
<polygon fill="red" stroke="red" points="23.8956,-40.1985 29.4544,-31.1791 19.4843,-34.7634 23.8956,-40.1985"/>
<text text-anchor="middle" x="14.8164" y="-83" font-family="NimbusMonL-Regu" font-size="10.00">i:14</text>
<text text-anchor="middle" x="14.8164" y="-72" font-family="NimbusMonL-Regu" font-size="10.00">j:4</text>
</g>
<!-- 1&#45;&gt;0 -->
<g id="edge4" class="edge"><title>1&#45;&gt;0</title>
<path fill="none" stroke="red" d="M45.8164,-39.6183C45.8164,-59.0293 45.8164,-89.7067 45.8164,-112.236"/>
<polygon fill="red" stroke="red" points="42.3165,-112.25 45.8164,-122.25 49.3165,-112.25 42.3165,-112.25"/>
<text text-anchor="middle" x="56.8164" y="-94" font-family="NimbusMonL-Regu" font-size="10.00">b:19</text>
<text text-anchor="middle" x="56.8164" y="-83" font-family="NimbusMonL-Regu" font-size="10.00">c:18</text>
<text text-anchor="middle" x="56.8164" y="-72" font-family="NimbusMonL-Regu" font-size="10.00">e:14</text>
<text text-anchor="middle" x="56.8164" y="-61" font-family="NimbusMonL-Regu" font-size="10.00">f:9</text>
</g>
<!-- 1&#45;&gt;0 -->
<g id="edge5" class="edge"><title>1&#45;&gt;0</title>
<path fill="none" stroke="red" d="M57.4976,-35.5702C61.9648,-42.0433 66.5325,-49.9997 68.8164,-58 74.1847,-76.8043 73.965,-83.1344 68.8164,-102 67.4039,-107.176 65.1099,-112.363 62.5046,-117.189"/>
<polygon fill="red" stroke="red" points="59.4069,-115.549 57.2612,-125.925 65.4087,-119.152 59.4069,-115.549"/>
<text text-anchor="middle" x="82.8164" y="-77.5" font-family="NimbusMonL-Regu" font-size="10.00">h:12</text>
</g>
<!-- 1&#45;&gt;1 -->
<g id="edge6" class="edge"><title>1&#45;&gt;1</title>
<path fill="none" stroke="red" d="M62.1745,-30.3601C72.6932,-33.0627 82.8164,-29.6094 82.8164,-20 82.8164,-13.6938 78.4567,-10.0389 72.4866,-9.03505"/>
<polygon fill="red" stroke="red" points="71.9524,-5.56028 62.1745,-9.63989 72.3624,-12.5483 71.9524,-5.56028"/>
<text text-anchor="middle" x="91.8164" y="-23" font-family="NimbusMonL-Regu" font-size="10.00">i:4</text>
<text text-anchor="middle" x="91.8164" y="-12" font-family="NimbusMonL-Regu" font-size="10.00">j:16</text>
</g>
</g>
</svg>
