<?xml version="1.0" encoding="UTF-8" standalone="no"?>
<!DOCTYPE svg PUBLIC "-//W3C//DTD SVG 1.1//EN"
 "http://www.w3.org/Graphics/SVG/1.1/DTD/svg11.dtd">
<!-- Generated by graphviz version 2.36.0 (20140111.2315)
 -->
<!-- Title: G Pages: 1 -->
<svg width="117pt" height="266pt"
 viewBox="0.00 0.00 116.89 266.00" xmlns="http://www.w3.org/2000/svg" xmlns:xlink="http://www.w3.org/1999/xlink">
<g id="graph0" class="graph" transform="scale(1 1) rotate(0) translate(4 262)">
<title>G</title>
<polygon fill="white" stroke="none" points="-4,4 -4,-262 112.885,-262 112.885,4 -4,4"/>
<!-- 0 -->
<g id="node1" class="node"><title>0</title>
<ellipse fill="none" stroke="black" cx="49.8854" cy="-225" rx="19.2474" ry="19.4965"/>
<text text-anchor="middle" x="49.8854" y="-221.3" font-family="Times,serif" font-size="14.00">q0</text>
</g>
<!-- 0&#45;&gt;0 -->
<g id="edge1" class="edge"><title>0&#45;&gt;0</title>
<path fill="none" stroke="red" d="M66.6282,-234.759C77.0076,-237.112 86.8854,-233.859 86.8854,-225 86.8854,-219.186 82.6314,-215.787 76.7733,-214.801"/>
<polygon fill="red" stroke="red" points="76.4673,-211.311 66.6282,-215.241 76.7703,-218.305 76.4673,-211.311"/>
<text text-anchor="middle" x="97.8854" y="-250" font-family="NimbusMonL-Regu" font-size="10.00">a:8</text>
<text text-anchor="middle" x="97.8854" y="-239" font-family="NimbusMonL-Regu" font-size="10.00">b:2</text>
<text text-anchor="middle" x="97.8854" y="-228" font-family="NimbusMonL-Regu" font-size="10.00">d:4</text>
<text text-anchor="middle" x="97.8854" y="-217" font-family="NimbusMonL-Regu" font-size="10.00">e:13</text>
<text text-anchor="middle" x="97.8854" y="-206" font-family="NimbusMonL-Regu" font-size="10.00">f:9</text>
<text text-anchor="middle" x="97.8854" y="-195" font-family="NimbusMonL-Regu" font-size="10.00">h:19</text>
</g>
<!-- 1 -->
<g id="node2" class="node"><title>1</title>
<ellipse fill="none" stroke="black" cx="44.8854" cy="-20" rx="19.2474" ry="19.4965"/>
<text text-anchor="middle" x="44.8854" y="-16.3" font-family="Times,serif" font-size="14.00">q1</text>
</g>
<!-- 0&#45;&gt;1 -->
<g id="edge2" class="edge"><title>0&#45;&gt;1</title>
<path fill="none" stroke="red" d="M38.3728,-209.093C27.3092,-193.748 11.3463,-168.664 4.88538,-144 -1.4215,-119.923 -1.73194,-111.993 4.88538,-88 9.26192,-72.1315 18.4952,-56.2327 26.9889,-43.9073"/>
<polygon fill="red" stroke="red" points="29.957,-45.775 32.9629,-35.6155 24.2775,-41.6831 29.957,-45.775"/>
<text text-anchor="middle" x="10.8854" y="-113.5" font-family="NimbusMonL-Regu" font-size="10.00">j:4</text>
</g>
<!-- 2 -->
<g id="node3" class="node"><title>2</title>
<ellipse fill="none" stroke="black" cx="44.8854" cy="-116" rx="19.2474" ry="19.4965"/>
<text text-anchor="middle" x="44.8854" y="-112.3" font-family="Times,serif" font-size="14.00">q2</text>
</g>
<!-- 0&#45;&gt;2 -->
<g id="edge3" class="edge"><title>0&#45;&gt;2</title>
<path fill="none" stroke="red" d="M42.0324,-206.817C38.1368,-197.353 33.8522,-185.27 31.8854,-174 30.1554,-164.087 31.7151,-153.303 34.2758,-143.81"/>
<polygon fill="red" stroke="red" points="37.6628,-144.708 37.3392,-134.118 30.9882,-142.598 37.6628,-144.708"/>
<text text-anchor="middle" x="39.3854" y="-165.5" font-family="NimbusMonL-Regu" font-size="10.00">c:8</text>
</g>
<!-- 1&#45;&gt;0 -->
<g id="edge4" class="edge"><title>1&#45;&gt;0</title>
<path fill="none" stroke="red" d="M55.5393,-36.2464C59.622,-42.7036 63.9899,-50.466 66.8854,-58 71.7633,-70.6923 71.5455,-74.4688 72.8854,-88 75.3379,-112.768 76.3578,-119.355 72.8854,-144 70.3625,-161.906 64.8113,-181.419 59.7947,-196.692"/>
<polygon fill="red" stroke="red" points="56.3599,-195.921 56.4509,-206.515 62.9865,-198.177 56.3599,-195.921"/>
<text text-anchor="middle" x="85.8854" y="-135.5" font-family="NimbusMonL-Regu" font-size="10.00">b:19</text>
<text text-anchor="middle" x="85.8854" y="-124.5" font-family="NimbusMonL-Regu" font-size="10.00">c:18</text>
<text text-anchor="middle" x="85.8854" y="-113.5" font-family="NimbusMonL-Regu" font-size="10.00">e:14</text>
<text text-anchor="middle" x="85.8854" y="-102.5" font-family="NimbusMonL-Regu" font-size="10.00">h:12</text>
<text text-anchor="middle" x="85.8854" y="-91.5" font-family="NimbusMonL-Regu" font-size="10.00">j:16</text>
</g>
<!-- 1&#45;&gt;1 -->
<g id="edge5" class="edge"><title>1&#45;&gt;1</title>
<path fill="none" stroke="red" d="M62.7789,-27.8552C72.7257,-29.3215 81.8854,-26.7031 81.8854,-20 81.8854,-15.7058 78.1262,-13.088 72.8092,-12.1465"/>
<polygon fill="red" stroke="red" points="72.7795,-8.64663 62.7789,-12.1448 72.7782,-15.6466 72.7795,-8.64663"/>
<text text-anchor="middle" x="87.8854" y="-17.5" font-family="NimbusMonL-Regu" font-size="10.00">i:4</text>
</g>
<!-- 2&#45;&gt;0 -->
<g id="edge6" class="edge"><title>2&#45;&gt;0</title>
<path fill="none" stroke="red" d="M45.7631,-135.783C46.5313,-152.222 47.6591,-176.358 48.541,-195.23"/>
<polygon fill="red" stroke="red" points="45.0514,-195.536 49.0144,-205.362 52.0438,-195.21 45.0514,-195.536"/>
<text text-anchor="middle" x="53.3854" y="-165.5" font-family="NimbusMonL-Regu" font-size="10.00">f:8</text>
</g>
<!-- 2&#45;&gt;1 -->
<g id="edge7" class="edge"><title>2&#45;&gt;1</title>
<path fill="none" stroke="red" d="M44.8854,-96.4286C44.8854,-83.1678 44.8854,-65.0706 44.8854,-49.9266"/>
<polygon fill="red" stroke="red" points="48.3855,-49.5328 44.8854,-39.5328 41.3855,-49.5328 48.3855,-49.5328"/>
<text text-anchor="middle" x="53.8854" y="-61.5" font-family="NimbusMonL-Regu" font-size="10.00">i:14</text>
</g>
</g>
</svg>
